#N canvas 0 50 1000 600 10;
#X array array0 10 float 0;
#X array array1 10 float 0;
#X array array2 10 float 0;
#X array array3 10 float 0;
#X array array4 10 float 0;
#X array array5 10 float 0;
#X array array6 10 float 0;
#X array array7 10 float 0;
#X array array8 10 float 0;
#X array array9 10 float 0;
#X array array10 10 float 0;
#X array array11 10 float 0;
#X array array12 10 float 0;
#X array array13 10 float 0;
#X array array14 10 float 0;
#X array array15 10 float 0;
#X array array16 10 float 0;
#X array array17 10 float 0;
#X array array18 10 float 0;
#X array array19 10 float 0;
#X array array20 10 float 0;
#X array array21 10 float 0;
#X array array22 10 float 0;
#X array array23 10 float 0;
#X array array24 10 float 0;
#X array array25 10 float 0;
#X array array26 10 float 0;
#X array array27 10 float 0;
#X array array28 10 float 0;
#X array array29 10 float 0;
#X array array30 10 float 0;
#X array array31 10 float 0;
#X array array32 10 float 0;
#X array array33 10 float 0;
#X array array34 10 float 0;
#X array array35 10 float 0;
#X array array36 10 float 0;
#X array array37 10 float 0;
#X array array38 10 float 0;
#X array array39 10 float 0;
#X array array40 10 float 0;
#X array array41 10 float 0;
#X array array42 10 float 0;
#X array array43 10 float 0;
#X array array44 10 float 0;
#X array array45 10 float 0;
#X array array46 10 float 0;
#X array array47 10 float 0;
#X array array48 10 float 0;
#X array array49 10 float 0;
#X array array50 10 float 0;
#X array array51 10 float 0;
#X array array52 10 float 0;
#X array array53 10 float 0;
#X array array54 10 float 0;
#X array array55 10 float 0;
#X array array56 10 float 0;
#X array array57 10 float 0;
#X array array58 10 float 0;
#X array array59 10 float 0;
#X array array60 10 float 0;
#X array array61 10 float 0;
#X array array62 10 float 0;
#X array array63 10 float 0;
#X obj 25 25 receive sample_file;
#X obj 25 50 trigger list list;
#X msg 25 75 read -resize \$2 array\$1;
#X obj 25 100 soundfiler;
#X floatatom 105 100 5 0 0 - - -;
#X obj 25 125 list append;
#X obj 25 150 list prepend;
#X obj 25 175 send sample_info;
#X msg 25 200 1 \;  sample_file 0 C:/Users/dylan/Music/samples/guitar-52.wav;
#X msg 25 240 1 \;  note 0  57 0.5 8 80 0.75 320  0 0.0 3.0 2.0 44100 60;
#X msg 25 280 1 \;  note 0  57 0.0 8 80 0.75 320  0 0.0 3.0 2.0 44100 60;
#X obj 475 25 receive note;
#X obj 475 50 trigger list list;
#X obj 475 75 list split 1;
#X obj 475 100 list prepend;
#X obj 475 125 clone voice_abstraction 64;
#N canvas 0 0 300 180 (subpatch) 0;
#X obj 25 25 r pd-dsp-started;
#X obj 25 50 samplerate~;
#X obj 25 75 inlet~;
#X obj 25 100 delwrite~ limiter 2;
#X obj 25 125 expr 1-pow(0.001 \,  1000.0/0.1/$f1);
#X obj 25 150 expr 1-pow(0.001 \,  1000.0/600.0/$f1);
#X obj 25 175 abs~;
#X obj 25 200 fexpr~ if($x1 > $y1 \,  (1-$f2)*$y1+$f2*$x1 \,  (1-$f3)*$y1+$f3*$x1);
#X obj 25 240 expr~ max(1.5 * $v1 \,  1.003);
#X obj 25 265 delread~ limiter 1;
#X obj 25 290 /~;
#X obj 25 315 outlet~;
#X connect 0 0 1 0;
#X connect 2 0 3 0;
#X connect 1 0 4 0;
#X connect 1 0 5 0;
#X connect 2 0 6 0;
#X connect 6 0 7 0;
#X connect 4 0 7 1;
#X connect 5 0 7 2;
#X connect 7 0 8 0;
#X connect 9 0 10 0;
#X connect 8 0 10 1;
#X connect 10 0 11 0;
#X restore 475 150 pd limiter;
#X obj 475 175 hip~ 5;
#X obj 475 200 dac~;
#X obj 625 25 loadbang;
#X msg 625 50 pd dsp 1;
#X obj 625 75 r voice_free;
#X obj 625 100 r sample_info;
#X connect 64 0 65 0;
#X connect 65 0 66 0;
#X connect 66 0 67 0;
#X connect 67 0 68 0;
#X connect 67 1 69 0;
#X connect 67 0 69 1;
#X connect 69 0 70 0;
#X connect 65 1 70 1;
#X connect 70 0 71 0;
#X connect 75 0 76 0;
#X connect 76 0 77 0;
#X connect 77 0 78 0;
#X connect 76 1 78 1;
#X connect 78 0 79 0;
#X connect 79 0 80 0;
#X connect 80 0 81 0;
#X connect 81 0 82 0;
#X connect 81 0 82 1;
#X connect 83 0 84 0;