#N canvas 0 50 1000 600 10;
#X array array0 10 float 0;
#X array array1 10 float 0;
#X array array2 10 float 0;
#X array array3 10 float 0;
#X array array4 10 float 0;
#X array array5 10 float 0;
#X array array6 10 float 0;
#X array array7 10 float 0;
#X array array8 10 float 0;
#X array array9 10 float 0;
#X array array10 10 float 0;
#X array array11 10 float 0;
#X array array12 10 float 0;
#X array array13 10 float 0;
#X array array14 10 float 0;
#X array array15 10 float 0;
#X array array16 10 float 0;
#X array array17 10 float 0;
#X array array18 10 float 0;
#X array array19 10 float 0;
#X array array20 10 float 0;
#X array array21 10 float 0;
#X array array22 10 float 0;
#X array array23 10 float 0;
#X array array24 10 float 0;
#X array array25 10 float 0;
#X array array26 10 float 0;
#X array array27 10 float 0;
#X array array28 10 float 0;
#X array array29 10 float 0;
#X array array30 10 float 0;
#X array array31 10 float 0;
#X array array32 10 float 0;
#X array array33 10 float 0;
#X array array34 10 float 0;
#X array array35 10 float 0;
#X array array36 10 float 0;
#X array array37 10 float 0;
#X array array38 10 float 0;
#X array array39 10 float 0;
#X array array40 10 float 0;
#X array array41 10 float 0;
#X array array42 10 float 0;
#X array array43 10 float 0;
#X array array44 10 float 0;
#X array array45 10 float 0;
#X array array46 10 float 0;
#X array array47 10 float 0;
#X array array48 10 float 0;
#X array array49 10 float 0;
#X array array50 10 float 0;
#X array array51 10 float 0;
#X array array52 10 float 0;
#X array array53 10 float 0;
#X array array54 10 float 0;
#X array array55 10 float 0;
#X array array56 10 float 0;
#X array array57 10 float 0;
#X array array58 10 float 0;
#X array array59 10 float 0;
#X array array60 10 float 0;
#X array array61 10 float 0;
#X array array62 10 float 0;
#X array array63 10 float 0;
#X array array64 10 float 0;
#X array array65 10 float 0;
#X array array66 10 float 0;
#X array array67 10 float 0;
#X array array68 10 float 0;
#X array array69 10 float 0;
#X array array70 10 float 0;
#X array array71 10 float 0;
#X array array72 10 float 0;
#X array array73 10 float 0;
#X array array74 10 float 0;
#X array array75 10 float 0;
#X array array76 10 float 0;
#X array array77 10 float 0;
#X array array78 10 float 0;
#X array array79 10 float 0;
#X array array80 10 float 0;
#X array array81 10 float 0;
#X array array82 10 float 0;
#X array array83 10 float 0;
#X array array84 10 float 0;
#X array array85 10 float 0;
#X array array86 10 float 0;
#X array array87 10 float 0;
#X array array88 10 float 0;
#X array array89 10 float 0;
#X array array90 10 float 0;
#X array array91 10 float 0;
#X array array92 10 float 0;
#X array array93 10 float 0;
#X array array94 10 float 0;
#X array array95 10 float 0;
#X array array96 10 float 0;
#X array array97 10 float 0;
#X array array98 10 float 0;
#X array array99 10 float 0;
#X array array100 10 float 0;
#X array array101 10 float 0;
#X array array102 10 float 0;
#X array array103 10 float 0;
#X array array104 10 float 0;
#X array array105 10 float 0;
#X array array106 10 float 0;
#X array array107 10 float 0;
#X array array108 10 float 0;
#X array array109 10 float 0;
#X array array110 10 float 0;
#X array array111 10 float 0;
#X array array112 10 float 0;
#X array array113 10 float 0;
#X array array114 10 float 0;
#X array array115 10 float 0;
#X array array116 10 float 0;
#X array array117 10 float 0;
#X array array118 10 float 0;
#X array array119 10 float 0;
#X array array120 10 float 0;
#X array array121 10 float 0;
#X array array122 10 float 0;
#X array array123 10 float 0;
#X array array124 10 float 0;
#X array array125 10 float 0;
#X array array126 10 float 0;
#X array array127 10 float 0;
#X array array128 10 float 0;
#X array array129 10 float 0;
#X array array130 10 float 0;
#X array array131 10 float 0;
#X array array132 10 float 0;
#X array array133 10 float 0;
#X array array134 10 float 0;
#X array array135 10 float 0;
#X array array136 10 float 0;
#X array array137 10 float 0;
#X array array138 10 float 0;
#X array array139 10 float 0;
#X array array140 10 float 0;
#X array array141 10 float 0;
#X array array142 10 float 0;
#X array array143 10 float 0;
#X array array144 10 float 0;
#X array array145 10 float 0;
#X array array146 10 float 0;
#X array array147 10 float 0;
#X array array148 10 float 0;
#X array array149 10 float 0;
#X array array150 10 float 0;
#X array array151 10 float 0;
#X array array152 10 float 0;
#X array array153 10 float 0;
#X array array154 10 float 0;
#X array array155 10 float 0;
#X array array156 10 float 0;
#X array array157 10 float 0;
#X array array158 10 float 0;
#X array array159 10 float 0;
#X array array160 10 float 0;
#X array array161 10 float 0;
#X array array162 10 float 0;
#X array array163 10 float 0;
#X array array164 10 float 0;
#X array array165 10 float 0;
#X array array166 10 float 0;
#X array array167 10 float 0;
#X array array168 10 float 0;
#X array array169 10 float 0;
#X array array170 10 float 0;
#X array array171 10 float 0;
#X array array172 10 float 0;
#X array array173 10 float 0;
#X array array174 10 float 0;
#X array array175 10 float 0;
#X array array176 10 float 0;
#X array array177 10 float 0;
#X array array178 10 float 0;
#X array array179 10 float 0;
#X array array180 10 float 0;
#X array array181 10 float 0;
#X array array182 10 float 0;
#X array array183 10 float 0;
#X array array184 10 float 0;
#X array array185 10 float 0;
#X array array186 10 float 0;
#X array array187 10 float 0;
#X array array188 10 float 0;
#X array array189 10 float 0;
#X array array190 10 float 0;
#X array array191 10 float 0;
#X obj 25 25 receive sample_file;
#X obj 25 50 trigger list list;
#X msg 25 75 read -resize \$2 array\$1;
#X obj 25 100 soundfiler;
#X floatatom 105 100 5 0 0 - - -;
#X obj 25 125 list append;
#X obj 25 150 list prepend;
#X obj 25 175 send sample_info;
#X msg 25 200 1 \;  sample_file 0 C:/Users/dylan/Music/samples/guitar-52.wav;
#X msg 25 240 1 \;  note 0  57 0.5 8 80 0.75 320  0 0.0 3.0 2.0 44100 60;
#X msg 25 280 1 \;  note 0  57 0.0 8 80 0.75 320  0 0.0 3.0 2.0 44100 60;
#X obj 475 25 receive note;
#X obj 475 50 trigger list list;
#X obj 475 75 list split 1;
#X obj 475 100 list prepend;
#X obj 475 125 clone voice_abstraction 64;
#N canvas 0 0 300 180 (subpatch) 0;
#X obj 25 25 r pd-dsp-started;
#X obj 25 50 samplerate~;
#X obj 25 75 inlet~;
#X obj 25 100 delwrite~ limiter 2;
#X obj 25 125 expr 1-pow(0.001 \,  1000.0/0.1/$f1);
#X obj 25 150 expr 1-pow(0.001 \,  1000.0/600.0/$f1);
#X obj 25 175 abs~;
#X obj 25 200 fexpr~ if($x1 > $y1 \,  (1-$f2)*$y1+$f2*$x1 \,  (1-$f3)*$y1+$f3*$x1);
#X obj 25 240 expr~ max(1.5 * $v1 \,  1.003);
#X obj 25 265 delread~ limiter 1;
#X obj 25 290 /~;
#X obj 25 315 outlet~;
#X connect 0 0 1 0;
#X connect 2 0 3 0;
#X connect 1 0 4 0;
#X connect 1 0 5 0;
#X connect 2 0 6 0;
#X connect 6 0 7 0;
#X connect 4 0 7 1;
#X connect 5 0 7 2;
#X connect 7 0 8 0;
#X connect 9 0 10 0;
#X connect 8 0 10 1;
#X connect 10 0 11 0;
#X restore 475 150 pd limiter;
#X obj 475 175 hip~ 5;
#X obj 475 200 dac~;
#X obj 625 25 loadbang;
#X msg 625 50 pd dsp 1;
#X obj 625 75 r voice_free;
#X obj 625 100 r sample_info;
#X connect 192 0 193 0;
#X connect 193 0 194 0;
#X connect 194 0 195 0;
#X connect 195 0 196 0;
#X connect 195 1 197 0;
#X connect 195 0 197 1;
#X connect 197 0 198 0;
#X connect 193 1 198 1;
#X connect 198 0 199 0;
#X connect 203 0 204 0;
#X connect 204 0 205 0;
#X connect 205 0 206 0;
#X connect 204 1 206 1;
#X connect 206 0 207 0;
#X connect 207 0 208 0;
#X connect 208 0 209 0;
#X connect 209 0 210 0;
#X connect 209 0 210 1;
#X connect 211 0 212 0;