#N canvas 0 50 1000 600 10;
#X array array1 10 float 0;
#X obj 25 50 receive sample_file;
#X msg 25 75 read -resize \$1 array1;
#X obj 25 100 soundfiler;
#X floatatom 25 125 5 0 0 0 - - -;
#X obj 225 50 receive sample_start;
#X obj 275 50 receive sample_end;
#X obj 225 75 * 44100;
#X obj 275 75 * 44100;
#X obj 225 100 trigger bang float;
#X obj 225 125 expr ($f2-$f1);
#X obj 225 150 trigger bang float;
#X obj 225 175 expr 1.0/($f2-$f1);
#X obj 675 50 receive dsp;
#X msg 675 75 pd dsp 1;
#X obj 450 50 receive note;
#X obj 450 75 unpack 0 0 0 0 0 0;
#X obj 450 100 f;
#X obj 500 100 receive sample_base_pitch;
#X obj 450 125 mtof;
#X obj 500 125 mtof;
#X obj 450 150 trigger bang float;
#X obj 450 175 expr $f1/1.0/$f2;
#X floatatom 450 200 5 0 0 0 - - -;
#X obj 225 300 trigger bang float;
#X obj 225 325 *;
#X obj 225 350 <= 0;
#X obj 275 350 moses 0.01;
#X obj 325 350 phasor~ 1;
#X obj 225 375 *~;
#X obj 275 375 -~ 3;
#X obj 325 375 +~;
#X obj 375 375 +~ 1;
#X obj 225 400 tabread4~ array1;
#X obj 550 300 pack 0 0 0 0 0;
#X obj 625 300 route 0;
#X msg 550 325 0;
#X msg 600 325 1 \$2 \, \$5 \$3 \$2;
#X obj 550 350 vline~;
#X obj 550 375 unpack 0 1 1 1 1;
#X obj 550 400 / 128;
#X obj 550 425 line~;
#X floatatom 600 425 5 0 0 0 - - -;
#X msg 550 450 1;
#X msg 600 450 0 \$3;
#X obj 550 475 vline~;
#X obj 550 500 *~;
#X obj 550 525 *~;
#X obj 400 600 *~;
#X obj 400 625 hip~ 5;
#X obj 400 650 dac~;
#X connect 1 0 2 0;
#X connect 2 0 3 0;
#X connect 3 0 4 0;
#X connect 5 0 7 0;
#X connect 6 0 8 0;
#X connect 8 0 9 0;
#X connect 7 0 10 0;
#X connect 9 0 10 0;
#X connect 9 1 10 1;
#X connect 6 0 11 0;
#X connect 5 0 12 0;
#X connect 11 0 12 0;
#X connect 11 1 12 1;
#X connect 13 0 14 0;
#X connect 15 0 16 0;
#X connect 16 0 17 0;
#X connect 17 0 19 0;
#X connect 18 0 20 0;
#X connect 20 0 21 0;
#X connect 19 0 22 0;
#X connect 21 0 22 0;
#X connect 21 1 22 1;
#X connect 22 0 23 0;
#X connect 23 0 24 0;
#X connect 12 0 25 0;
#X connect 24 0 25 0;
#X connect 24 1 25 1;
#X connect 16 1 26 0;
#X connect 26 0 27 0;
#X connect 25 0 28 0;
#X connect 27 0 28 1;
#X connect 10 0 29 0;
#X connect 28 0 29 1;
#X connect 29 0 30 0;
#X connect 29 0 31 0;
#X connect 7 0 31 1;
#X connect 31 0 32 0;
#X connect 32 0 33 0;
#X connect 16 1 34 0;
#X connect 16 2 34 1;
#X connect 16 3 34 2;
#X connect 16 5 34 3;
#X connect 16 4 34 4;
#X connect 34 0 35 0;
#X connect 35 1 36 0;
#X connect 35 1 37 0;
#X connect 36 0 38 0;
#X connect 37 0 38 0;
#X connect 35 1 39 0;
#X connect 39 0 40 0;
#X connect 40 0 41 0;
#X connect 40 0 42 0;
#X connect 16 2 43 0;
#X connect 35 0 44 0;
#X connect 43 0 45 0;
#X connect 44 0 45 0;
#X connect 38 0 46 0;
#X connect 45 0 46 1;
#X connect 46 0 47 0;
#X connect 41 0 47 1;
#X connect 33 0 48 0;
#X connect 47 0 48 1;
#X connect 48 0 49 0;
#X connect 49 0 50 0;
#X connect 49 0 50 1;
