#N canvas 0 50 1139 692 10;
#X array array1 3.92386e+006 float 0;
#X obj 25 50 receive sample_file;
#X msg 25 75 read -resize \$1 array1;
#X obj 25 100 soundfiler;
#X floatatom 25 125 5 0 0 0 - - -;
#X obj 225 50 receive note;
#X obj 225 75 trigger list list;
#X obj 225 100 list split 1;
#X obj 303 555 hip~ 5;
#X obj 304 603 dac~;
#X obj 450 50 receive dsp;
#X msg 450 75 pd dsp 1;
#N canvas 0 50 1450 755 sample_voice 0;
#X obj 225 50 receive sample_start;
#X obj 335 50 receive sample_end;
#X obj 225 75 * 44100;
#X obj 275 75 * 44100;
#X obj 225 100 trigger bang float;
#X obj 225 125 expr ($f2-$f1);
#X obj 225 150 trigger bang float;
#X obj 225 175 expr 1.0/($f2-$f1);
#X obj 450 50 inlet;
#X obj 450 75 unpack 0 0 0 0 0 0 0;
#X obj 450 100 f;
#X obj 500 100 receive sample_base_pitch;
#X obj 450 125 mtof;
#X obj 500 125 mtof;
#X obj 450 150 trigger bang float;
#X obj 450 175 expr $f1/1.0/$f2;
#X floatatom 450 200 5 0 0 0 - - -;
#X obj 675 50 inlet~;
#X obj 225 300 trigger bang float;
#X obj 225 325 *;
#X obj 225 350 <= 0;
#X obj 275 350 moses 0.01;
#X obj 325 350 phasor~ 1;
#X obj 225 375 *~;
#X obj 275 375 -~ 3;
#X obj 325 375 +~;
#X obj 375 375 +~ 1;
#X obj 225 400 tabread4~ array1;
#X obj 550 300 pack 0 0 0 0 0;
#X obj 640 300 route 0;
#X msg 550 325 0;
#X msg 600 325 1 \$2 \, \$5 \$3 \$2;
#X obj 550 350 vline~;
#X obj 550 375 unpack 0 0 0 0 0;
#X obj 550 400 / 128;
#X obj 550 425 line~;
#X floatatom 600 425 5 0 0 0 - - -;
#X obj 550 450 unpack 0 0 0 0 0;
#X obj 640 450 t b f;
#X obj 700 450 delay;
#X obj 750 450 f;
#X msg 800 450 1 \; voice_free \$1;
#X msg 550 475 1;
#X msg 600 475 0 \$3;
#X obj 550 500 vline~;
#X obj 550 525 *~;
#X obj 550 550 *~;
#X obj 400 600 *~;
#X obj 400 625 +~;
#X obj 400 650 outlet~;
#X connect 0 0 2 0;
#X connect 0 0 7 0;
#X connect 1 0 3 0;
#X connect 1 0 6 0;
#X connect 2 0 5 0;
#X connect 2 0 25 1;
#X connect 3 0 4 0;
#X connect 4 0 5 0;
#X connect 4 1 5 1;
#X connect 5 0 23 0;
#X connect 6 0 7 0;
#X connect 6 1 7 1;
#X connect 7 0 19 0;
#X connect 8 0 9 0;
#X connect 9 0 10 0;
#X connect 9 1 20 0;
#X connect 9 1 28 0;
#X connect 9 2 28 1;
#X connect 9 2 42 0;
#X connect 9 3 28 2;
#X connect 9 4 28 4;
#X connect 9 5 28 3;
#X connect 9 6 40 1;
#X connect 10 0 12 0;
#X connect 11 0 13 0;
#X connect 12 0 15 0;
#X connect 13 0 14 0;
#X connect 14 0 15 0;
#X connect 14 1 15 1;
#X connect 15 0 16 0;
#X connect 16 0 18 0;
#X connect 17 0 48 1;
#X connect 18 0 19 0;
#X connect 18 1 19 1;
#X connect 19 0 22 0;
#X connect 20 0 21 0;
#X connect 21 0 22 1;
#X connect 22 0 23 1;
#X connect 23 0 24 0;
#X connect 23 0 25 0;
#X connect 25 0 26 0;
#X connect 26 0 27 0;
#X connect 27 0 47 0;
#X connect 28 0 29 0;
#X connect 29 0 37 0;
#X connect 29 0 43 0;
#X connect 29 1 30 0;
#X connect 29 1 31 0;
#X connect 29 1 33 0;
#X connect 30 0 32 0;
#X connect 31 0 32 0;
#X connect 32 0 45 0;
#X connect 33 0 34 0;
#X connect 34 0 35 0;
#X connect 34 0 36 0;
#X connect 35 0 46 1;
#X connect 37 2 38 0;
#X connect 38 0 39 0;
#X connect 38 1 39 1;
#X connect 39 0 40 0;
#X connect 40 0 41 0;
#X connect 42 0 44 0;
#X connect 43 0 44 0;
#X connect 44 0 45 1;
#X connect 45 0 46 0;
#X connect 46 0 47 1;
#X connect 47 0 48 0;
#X connect 48 0 49 0;
#X restore 229 235 pd sample_voice;
#N canvas 0 50 450 300 sample_voice 0;
#X obj 225 50 receive sample_start;
#X obj 335 50 receive sample_end;
#X obj 225 75 * 44100;
#X obj 275 75 * 44100;
#X obj 225 100 trigger bang float;
#X obj 225 125 expr ($f2-$f1);
#X obj 225 150 trigger bang float;
#X obj 225 175 expr 1.0/($f2-$f1);
#X obj 450 50 inlet;
#X obj 450 75 unpack 0 0 0 0 0 0 0;
#X obj 450 100 f;
#X obj 500 100 receive sample_base_pitch;
#X obj 450 125 mtof;
#X obj 500 125 mtof;
#X obj 450 150 trigger bang float;
#X obj 450 175 expr $f1/1.0/$f2;
#X floatatom 450 200 5 0 0 0 - - -;
#X obj 675 50 inlet~;
#X obj 225 300 trigger bang float;
#X obj 225 325 *;
#X obj 225 350 <= 0;
#X obj 275 350 moses 0.01;
#X obj 325 350 phasor~ 1;
#X obj 225 375 *~;
#X obj 275 375 -~ 3;
#X obj 325 375 +~;
#X obj 375 375 +~ 1;
#X obj 225 400 tabread4~ array1;
#X obj 550 300 pack 0 0 0 0 0;
#X obj 640 300 route 0;
#X msg 550 325 0;
#X msg 600 325 1 \$2 \, \$5 \$3 \$2;
#X obj 550 350 vline~;
#X obj 550 375 unpack 0 0 0 0 0;
#X obj 550 400 / 128;
#X obj 550 425 line~;
#X floatatom 600 425 5 0 0 0 - - -;
#X obj 550 450 unpack 0 0 0 0 0;
#X obj 640 450 t b f;
#X obj 700 450 delay;
#X obj 750 450 f;
#X msg 800 450 1 \; voice_free \$1;
#X msg 550 475 1;
#X msg 600 475 0 \$3;
#X obj 550 500 vline~;
#X obj 550 525 *~;
#X obj 550 550 *~;
#X obj 400 600 *~;
#X obj 400 625 +~;
#X obj 400 650 outlet~;
#X connect 0 0 2 0;
#X connect 0 0 7 0;
#X connect 1 0 3 0;
#X connect 1 0 6 0;
#X connect 2 0 5 0;
#X connect 2 0 25 1;
#X connect 3 0 4 0;
#X connect 4 0 5 0;
#X connect 4 1 5 1;
#X connect 5 0 23 0;
#X connect 6 0 7 0;
#X connect 6 1 7 1;
#X connect 7 0 19 0;
#X connect 8 0 9 0;
#X connect 9 0 10 0;
#X connect 9 1 20 0;
#X connect 9 1 28 0;
#X connect 9 2 28 1;
#X connect 9 2 42 0;
#X connect 9 3 28 2;
#X connect 9 4 28 4;
#X connect 9 5 28 3;
#X connect 9 6 40 1;
#X connect 10 0 12 0;
#X connect 11 0 13 0;
#X connect 12 0 15 0;
#X connect 13 0 14 0;
#X connect 14 0 15 0;
#X connect 14 1 15 1;
#X connect 15 0 16 0;
#X connect 16 0 18 0;
#X connect 17 0 48 1;
#X connect 18 0 19 0;
#X connect 18 1 19 1;
#X connect 19 0 22 0;
#X connect 20 0 21 0;
#X connect 21 0 22 1;
#X connect 22 0 23 1;
#X connect 23 0 24 0;
#X connect 23 0 25 0;
#X connect 25 0 26 0;
#X connect 26 0 27 0;
#X connect 27 0 47 0;
#X connect 28 0 29 0;
#X connect 29 0 37 0;
#X connect 29 0 43 0;
#X connect 29 1 30 0;
#X connect 29 1 31 0;
#X connect 29 1 33 0;
#X connect 30 0 32 0;
#X connect 31 0 32 0;
#X connect 32 0 45 0;
#X connect 33 0 34 0;
#X connect 34 0 35 0;
#X connect 34 0 36 0;
#X connect 35 0 46 1;
#X connect 37 2 38 0;
#X connect 38 0 39 0;
#X connect 38 1 39 1;
#X connect 39 0 40 0;
#X connect 40 0 41 0;
#X connect 42 0 44 0;
#X connect 43 0 44 0;
#X connect 44 0 45 1;
#X connect 45 0 46 0;
#X connect 46 0 47 1;
#X connect 47 0 48 0;
#X connect 48 0 49 0;
#X restore 230 257 pd sample_voice;
#X obj 313 235 sig~ 0;
#X obj 225 125 list prepend;
#X obj 448 115 receive voice_free;
#N canvas 0 50 450 300 sample_voice 0;
#X obj 225 50 receive sample_start;
#X obj 335 50 receive sample_end;
#X obj 225 75 * 44100;
#X obj 275 75 * 44100;
#X obj 225 100 trigger bang float;
#X obj 225 125 expr ($f2-$f1);
#X obj 225 150 trigger bang float;
#X obj 225 175 expr 1.0/($f2-$f1);
#X obj 450 50 inlet;
#X obj 450 75 unpack 0 0 0 0 0 0 0;
#X obj 450 100 f;
#X obj 500 100 receive sample_base_pitch;
#X obj 450 125 mtof;
#X obj 500 125 mtof;
#X obj 450 150 trigger bang float;
#X obj 450 175 expr $f1/1.0/$f2;
#X floatatom 450 200 5 0 0 0 - - -;
#X obj 675 50 inlet~;
#X obj 225 300 trigger bang float;
#X obj 225 325 *;
#X obj 225 350 <= 0;
#X obj 275 350 moses 0.01;
#X obj 325 350 phasor~ 1;
#X obj 225 375 *~;
#X obj 275 375 -~ 3;
#X obj 325 375 +~;
#X obj 375 375 +~ 1;
#X obj 225 400 tabread4~ array1;
#X obj 550 300 pack 0 0 0 0 0;
#X obj 640 300 route 0;
#X msg 550 325 0;
#X msg 600 325 1 \$2 \, \$5 \$3 \$2;
#X obj 550 350 vline~;
#X obj 550 375 unpack 0 0 0 0 0;
#X obj 550 400 / 128;
#X obj 550 425 line~;
#X floatatom 600 425 5 0 0 0 - - -;
#X obj 550 450 unpack 0 0 0 0 0;
#X obj 640 450 t b f;
#X obj 700 450 delay;
#X obj 750 450 f;
#X msg 800 450 1 \; voice_free \$1;
#X msg 550 475 1;
#X msg 600 475 0 \$3;
#X obj 550 500 vline~;
#X obj 550 525 *~;
#X obj 550 550 *~;
#X obj 400 600 *~;
#X obj 400 625 +~;
#X obj 400 650 outlet~;
#X connect 0 0 2 0;
#X connect 0 0 7 0;
#X connect 1 0 3 0;
#X connect 1 0 6 0;
#X connect 2 0 5 0;
#X connect 2 0 25 1;
#X connect 3 0 4 0;
#X connect 4 0 5 0;
#X connect 4 1 5 1;
#X connect 5 0 23 0;
#X connect 6 0 7 0;
#X connect 6 1 7 1;
#X connect 7 0 19 0;
#X connect 8 0 9 0;
#X connect 9 0 10 0;
#X connect 9 1 20 0;
#X connect 9 1 28 0;
#X connect 9 2 28 1;
#X connect 9 2 42 0;
#X connect 9 3 28 2;
#X connect 9 4 28 4;
#X connect 9 5 28 3;
#X connect 9 6 40 1;
#X connect 10 0 12 0;
#X connect 11 0 13 0;
#X connect 12 0 15 0;
#X connect 13 0 14 0;
#X connect 14 0 15 0;
#X connect 14 1 15 1;
#X connect 15 0 16 0;
#X connect 16 0 18 0;
#X connect 17 0 48 1;
#X connect 18 0 19 0;
#X connect 18 1 19 1;
#X connect 19 0 22 0;
#X connect 20 0 21 0;
#X connect 21 0 22 1;
#X connect 22 0 23 1;
#X connect 23 0 24 0;
#X connect 23 0 25 0;
#X connect 25 0 26 0;
#X connect 26 0 27 0;
#X connect 27 0 47 0;
#X connect 28 0 29 0;
#X connect 29 0 37 0;
#X connect 29 0 43 0;
#X connect 29 1 30 0;
#X connect 29 1 31 0;
#X connect 29 1 33 0;
#X connect 30 0 32 0;
#X connect 31 0 32 0;
#X connect 32 0 45 0;
#X connect 33 0 34 0;
#X connect 34 0 35 0;
#X connect 34 0 36 0;
#X connect 35 0 46 1;
#X connect 37 2 38 0;
#X connect 38 0 39 0;
#X connect 38 1 39 1;
#X connect 39 0 40 0;
#X connect 40 0 41 0;
#X connect 42 0 44 0;
#X connect 43 0 44 0;
#X connect 44 0 45 1;
#X connect 45 0 46 0;
#X connect 46 0 47 1;
#X connect 47 0 48 0;
#X connect 48 0 49 0;
#X restore 231 279 pd sample_voice;
#N canvas 0 50 450 300 sample_voice 0;
#X obj 225 50 receive sample_start;
#X obj 335 50 receive sample_end;
#X obj 225 75 * 44100;
#X obj 275 75 * 44100;
#X obj 225 100 trigger bang float;
#X obj 225 125 expr ($f2-$f1);
#X obj 225 150 trigger bang float;
#X obj 225 175 expr 1.0/($f2-$f1);
#X obj 450 50 inlet;
#X obj 450 75 unpack 0 0 0 0 0 0 0;
#X obj 450 100 f;
#X obj 500 100 receive sample_base_pitch;
#X obj 450 125 mtof;
#X obj 500 125 mtof;
#X obj 450 150 trigger bang float;
#X obj 450 175 expr $f1/1.0/$f2;
#X floatatom 450 200 5 0 0 0 - - -;
#X obj 675 50 inlet~;
#X obj 225 300 trigger bang float;
#X obj 225 325 *;
#X obj 225 350 <= 0;
#X obj 275 350 moses 0.01;
#X obj 325 350 phasor~ 1;
#X obj 225 375 *~;
#X obj 275 375 -~ 3;
#X obj 325 375 +~;
#X obj 375 375 +~ 1;
#X obj 225 400 tabread4~ array1;
#X obj 550 300 pack 0 0 0 0 0;
#X obj 640 300 route 0;
#X msg 550 325 0;
#X msg 600 325 1 \$2 \, \$5 \$3 \$2;
#X obj 550 350 vline~;
#X obj 550 375 unpack 0 0 0 0 0;
#X obj 550 400 / 128;
#X obj 550 425 line~;
#X floatatom 600 425 5 0 0 0 - - -;
#X obj 550 450 unpack 0 0 0 0 0;
#X obj 640 450 t b f;
#X obj 700 450 delay;
#X obj 750 450 f;
#X msg 800 450 1 \; voice_free \$1;
#X msg 550 475 1;
#X msg 600 475 0 \$3;
#X obj 550 500 vline~;
#X obj 550 525 *~;
#X obj 550 550 *~;
#X obj 400 600 *~;
#X obj 400 625 +~;
#X obj 400 650 outlet~;
#X connect 0 0 2 0;
#X connect 0 0 7 0;
#X connect 1 0 3 0;
#X connect 1 0 6 0;
#X connect 2 0 5 0;
#X connect 2 0 25 1;
#X connect 3 0 4 0;
#X connect 4 0 5 0;
#X connect 4 1 5 1;
#X connect 5 0 23 0;
#X connect 6 0 7 0;
#X connect 6 1 7 1;
#X connect 7 0 19 0;
#X connect 8 0 9 0;
#X connect 9 0 10 0;
#X connect 9 1 20 0;
#X connect 9 1 28 0;
#X connect 9 2 28 1;
#X connect 9 2 42 0;
#X connect 9 3 28 2;
#X connect 9 4 28 4;
#X connect 9 5 28 3;
#X connect 9 6 40 1;
#X connect 10 0 12 0;
#X connect 11 0 13 0;
#X connect 12 0 15 0;
#X connect 13 0 14 0;
#X connect 14 0 15 0;
#X connect 14 1 15 1;
#X connect 15 0 16 0;
#X connect 16 0 18 0;
#X connect 17 0 48 1;
#X connect 18 0 19 0;
#X connect 18 1 19 1;
#X connect 19 0 22 0;
#X connect 20 0 21 0;
#X connect 21 0 22 1;
#X connect 22 0 23 1;
#X connect 23 0 24 0;
#X connect 23 0 25 0;
#X connect 25 0 26 0;
#X connect 26 0 27 0;
#X connect 27 0 47 0;
#X connect 28 0 29 0;
#X connect 29 0 37 0;
#X connect 29 0 43 0;
#X connect 29 1 30 0;
#X connect 29 1 31 0;
#X connect 29 1 33 0;
#X connect 30 0 32 0;
#X connect 31 0 32 0;
#X connect 32 0 45 0;
#X connect 33 0 34 0;
#X connect 34 0 35 0;
#X connect 34 0 36 0;
#X connect 35 0 46 1;
#X connect 37 2 38 0;
#X connect 38 0 39 0;
#X connect 38 1 39 1;
#X connect 39 0 40 0;
#X connect 40 0 41 0;
#X connect 42 0 44 0;
#X connect 43 0 44 0;
#X connect 44 0 45 1;
#X connect 45 0 46 0;
#X connect 46 0 47 1;
#X connect 47 0 48 0;
#X connect 48 0 49 0;
#X restore 231 302 pd sample_voice;
#N canvas 0 50 450 300 sample_voice 0;
#X obj 225 50 receive sample_start;
#X obj 335 50 receive sample_end;
#X obj 225 75 * 44100;
#X obj 275 75 * 44100;
#X obj 225 100 trigger bang float;
#X obj 225 125 expr ($f2-$f1);
#X obj 225 150 trigger bang float;
#X obj 225 175 expr 1.0/($f2-$f1);
#X obj 450 50 inlet;
#X obj 450 75 unpack 0 0 0 0 0 0 0;
#X obj 450 100 f;
#X obj 500 100 receive sample_base_pitch;
#X obj 450 125 mtof;
#X obj 500 125 mtof;
#X obj 450 150 trigger bang float;
#X obj 450 175 expr $f1/1.0/$f2;
#X floatatom 450 200 5 0 0 0 - - -;
#X obj 675 50 inlet~;
#X obj 225 300 trigger bang float;
#X obj 225 325 *;
#X obj 225 350 <= 0;
#X obj 275 350 moses 0.01;
#X obj 325 350 phasor~ 1;
#X obj 225 375 *~;
#X obj 275 375 -~ 3;
#X obj 325 375 +~;
#X obj 375 375 +~ 1;
#X obj 225 400 tabread4~ array1;
#X obj 550 300 pack 0 0 0 0 0;
#X obj 640 300 route 0;
#X msg 550 325 0;
#X msg 600 325 1 \$2 \, \$5 \$3 \$2;
#X obj 550 350 vline~;
#X obj 550 375 unpack 0 0 0 0 0;
#X obj 550 400 / 128;
#X obj 550 425 line~;
#X floatatom 600 425 5 0 0 0 - - -;
#X obj 550 450 unpack 0 0 0 0 0;
#X obj 640 450 t b f;
#X obj 700 450 delay;
#X obj 750 450 f;
#X msg 800 450 1 \; voice_free \$1;
#X msg 550 475 1;
#X msg 600 475 0 \$3;
#X obj 550 500 vline~;
#X obj 550 525 *~;
#X obj 550 550 *~;
#X obj 400 600 *~;
#X obj 400 625 +~;
#X obj 400 650 outlet~;
#X connect 0 0 2 0;
#X connect 0 0 7 0;
#X connect 1 0 3 0;
#X connect 1 0 6 0;
#X connect 2 0 5 0;
#X connect 2 0 25 1;
#X connect 3 0 4 0;
#X connect 4 0 5 0;
#X connect 4 1 5 1;
#X connect 5 0 23 0;
#X connect 6 0 7 0;
#X connect 6 1 7 1;
#X connect 7 0 19 0;
#X connect 8 0 9 0;
#X connect 9 0 10 0;
#X connect 9 1 20 0;
#X connect 9 1 28 0;
#X connect 9 2 28 1;
#X connect 9 2 42 0;
#X connect 9 3 28 2;
#X connect 9 4 28 4;
#X connect 9 5 28 3;
#X connect 9 6 40 1;
#X connect 10 0 12 0;
#X connect 11 0 13 0;
#X connect 12 0 15 0;
#X connect 13 0 14 0;
#X connect 14 0 15 0;
#X connect 14 1 15 1;
#X connect 15 0 16 0;
#X connect 16 0 18 0;
#X connect 17 0 48 1;
#X connect 18 0 19 0;
#X connect 18 1 19 1;
#X connect 19 0 22 0;
#X connect 20 0 21 0;
#X connect 21 0 22 1;
#X connect 22 0 23 1;
#X connect 23 0 24 0;
#X connect 23 0 25 0;
#X connect 25 0 26 0;
#X connect 26 0 27 0;
#X connect 27 0 47 0;
#X connect 28 0 29 0;
#X connect 29 0 37 0;
#X connect 29 0 43 0;
#X connect 29 1 30 0;
#X connect 29 1 31 0;
#X connect 29 1 33 0;
#X connect 30 0 32 0;
#X connect 31 0 32 0;
#X connect 32 0 45 0;
#X connect 33 0 34 0;
#X connect 34 0 35 0;
#X connect 34 0 36 0;
#X connect 35 0 46 1;
#X connect 37 2 38 0;
#X connect 38 0 39 0;
#X connect 38 1 39 1;
#X connect 39 0 40 0;
#X connect 40 0 41 0;
#X connect 42 0 44 0;
#X connect 43 0 44 0;
#X connect 44 0 45 1;
#X connect 45 0 46 0;
#X connect 46 0 47 1;
#X connect 47 0 48 0;
#X connect 48 0 49 0;
#X restore 232 324 pd sample_voice;
#N canvas 0 50 450 300 sample_voice 0;
#X obj 225 50 receive sample_start;
#X obj 335 50 receive sample_end;
#X obj 225 75 * 44100;
#X obj 275 75 * 44100;
#X obj 225 100 trigger bang float;
#X obj 225 125 expr ($f2-$f1);
#X obj 225 150 trigger bang float;
#X obj 225 175 expr 1.0/($f2-$f1);
#X obj 450 50 inlet;
#X obj 450 75 unpack 0 0 0 0 0 0 0;
#X obj 450 100 f;
#X obj 500 100 receive sample_base_pitch;
#X obj 450 125 mtof;
#X obj 500 125 mtof;
#X obj 450 150 trigger bang float;
#X obj 450 175 expr $f1/1.0/$f2;
#X floatatom 450 200 5 0 0 0 - - -;
#X obj 675 50 inlet~;
#X obj 225 300 trigger bang float;
#X obj 225 325 *;
#X obj 225 350 <= 0;
#X obj 275 350 moses 0.01;
#X obj 325 350 phasor~ 1;
#X obj 225 375 *~;
#X obj 275 375 -~ 3;
#X obj 325 375 +~;
#X obj 375 375 +~ 1;
#X obj 225 400 tabread4~ array1;
#X obj 550 300 pack 0 0 0 0 0;
#X obj 640 300 route 0;
#X msg 550 325 0;
#X msg 600 325 1 \$2 \, \$5 \$3 \$2;
#X obj 550 350 vline~;
#X obj 550 375 unpack 0 0 0 0 0;
#X obj 550 400 / 128;
#X obj 550 425 line~;
#X floatatom 600 425 5 0 0 0 - - -;
#X obj 550 450 unpack 0 0 0 0 0;
#X obj 640 450 t b f;
#X obj 700 450 delay;
#X obj 750 450 f;
#X msg 800 450 1 \; voice_free \$1;
#X msg 550 475 1;
#X msg 600 475 0 \$3;
#X obj 550 500 vline~;
#X obj 550 525 *~;
#X obj 550 550 *~;
#X obj 400 600 *~;
#X obj 400 625 +~;
#X obj 400 650 outlet~;
#X connect 0 0 2 0;
#X connect 0 0 7 0;
#X connect 1 0 3 0;
#X connect 1 0 6 0;
#X connect 2 0 5 0;
#X connect 2 0 25 1;
#X connect 3 0 4 0;
#X connect 4 0 5 0;
#X connect 4 1 5 1;
#X connect 5 0 23 0;
#X connect 6 0 7 0;
#X connect 6 1 7 1;
#X connect 7 0 19 0;
#X connect 8 0 9 0;
#X connect 9 0 10 0;
#X connect 9 1 20 0;
#X connect 9 1 28 0;
#X connect 9 2 28 1;
#X connect 9 2 42 0;
#X connect 9 3 28 2;
#X connect 9 4 28 4;
#X connect 9 5 28 3;
#X connect 9 6 40 1;
#X connect 10 0 12 0;
#X connect 11 0 13 0;
#X connect 12 0 15 0;
#X connect 13 0 14 0;
#X connect 14 0 15 0;
#X connect 14 1 15 1;
#X connect 15 0 16 0;
#X connect 16 0 18 0;
#X connect 17 0 48 1;
#X connect 18 0 19 0;
#X connect 18 1 19 1;
#X connect 19 0 22 0;
#X connect 20 0 21 0;
#X connect 21 0 22 1;
#X connect 22 0 23 1;
#X connect 23 0 24 0;
#X connect 23 0 25 0;
#X connect 25 0 26 0;
#X connect 26 0 27 0;
#X connect 27 0 47 0;
#X connect 28 0 29 0;
#X connect 29 0 37 0;
#X connect 29 0 43 0;
#X connect 29 1 30 0;
#X connect 29 1 31 0;
#X connect 29 1 33 0;
#X connect 30 0 32 0;
#X connect 31 0 32 0;
#X connect 32 0 45 0;
#X connect 33 0 34 0;
#X connect 34 0 35 0;
#X connect 34 0 36 0;
#X connect 35 0 46 1;
#X connect 37 2 38 0;
#X connect 38 0 39 0;
#X connect 38 1 39 1;
#X connect 39 0 40 0;
#X connect 40 0 41 0;
#X connect 42 0 44 0;
#X connect 43 0 44 0;
#X connect 44 0 45 1;
#X connect 45 0 46 0;
#X connect 46 0 47 1;
#X connect 47 0 48 0;
#X connect 48 0 49 0;
#X restore 233 346 pd sample_voice;
#N canvas 0 50 450 300 sample_voice 0;
#X obj 225 50 receive sample_start;
#X obj 335 50 receive sample_end;
#X obj 225 75 * 44100;
#X obj 275 75 * 44100;
#X obj 225 100 trigger bang float;
#X obj 225 125 expr ($f2-$f1);
#X obj 225 150 trigger bang float;
#X obj 225 175 expr 1.0/($f2-$f1);
#X obj 450 50 inlet;
#X obj 450 75 unpack 0 0 0 0 0 0 0;
#X obj 450 100 f;
#X obj 500 100 receive sample_base_pitch;
#X obj 450 125 mtof;
#X obj 500 125 mtof;
#X obj 450 150 trigger bang float;
#X obj 450 175 expr $f1/1.0/$f2;
#X floatatom 450 200 5 0 0 0 - - -;
#X obj 675 50 inlet~;
#X obj 225 300 trigger bang float;
#X obj 225 325 *;
#X obj 225 350 <= 0;
#X obj 275 350 moses 0.01;
#X obj 325 350 phasor~ 1;
#X obj 225 375 *~;
#X obj 275 375 -~ 3;
#X obj 325 375 +~;
#X obj 375 375 +~ 1;
#X obj 225 400 tabread4~ array1;
#X obj 550 300 pack 0 0 0 0 0;
#X obj 640 300 route 0;
#X msg 550 325 0;
#X msg 600 325 1 \$2 \, \$5 \$3 \$2;
#X obj 550 350 vline~;
#X obj 550 375 unpack 0 0 0 0 0;
#X obj 550 400 / 128;
#X obj 550 425 line~;
#X floatatom 600 425 5 0 0 0 - - -;
#X obj 550 450 unpack 0 0 0 0 0;
#X obj 640 450 t b f;
#X obj 700 450 delay;
#X obj 750 450 f;
#X msg 800 450 1 \; voice_free \$1;
#X msg 550 475 1;
#X msg 600 475 0 \$3;
#X obj 550 500 vline~;
#X obj 550 525 *~;
#X obj 550 550 *~;
#X obj 400 600 *~;
#X obj 400 625 +~;
#X obj 400 650 outlet~;
#X connect 0 0 2 0;
#X connect 0 0 7 0;
#X connect 1 0 3 0;
#X connect 1 0 6 0;
#X connect 2 0 5 0;
#X connect 2 0 25 1;
#X connect 3 0 4 0;
#X connect 4 0 5 0;
#X connect 4 1 5 1;
#X connect 5 0 23 0;
#X connect 6 0 7 0;
#X connect 6 1 7 1;
#X connect 7 0 19 0;
#X connect 8 0 9 0;
#X connect 9 0 10 0;
#X connect 9 1 20 0;
#X connect 9 1 28 0;
#X connect 9 2 28 1;
#X connect 9 2 42 0;
#X connect 9 3 28 2;
#X connect 9 4 28 4;
#X connect 9 5 28 3;
#X connect 9 6 40 1;
#X connect 10 0 12 0;
#X connect 11 0 13 0;
#X connect 12 0 15 0;
#X connect 13 0 14 0;
#X connect 14 0 15 0;
#X connect 14 1 15 1;
#X connect 15 0 16 0;
#X connect 16 0 18 0;
#X connect 17 0 48 1;
#X connect 18 0 19 0;
#X connect 18 1 19 1;
#X connect 19 0 22 0;
#X connect 20 0 21 0;
#X connect 21 0 22 1;
#X connect 22 0 23 1;
#X connect 23 0 24 0;
#X connect 23 0 25 0;
#X connect 25 0 26 0;
#X connect 26 0 27 0;
#X connect 27 0 47 0;
#X connect 28 0 29 0;
#X connect 29 0 37 0;
#X connect 29 0 43 0;
#X connect 29 1 30 0;
#X connect 29 1 31 0;
#X connect 29 1 33 0;
#X connect 30 0 32 0;
#X connect 31 0 32 0;
#X connect 32 0 45 0;
#X connect 33 0 34 0;
#X connect 34 0 35 0;
#X connect 34 0 36 0;
#X connect 35 0 46 1;
#X connect 37 2 38 0;
#X connect 38 0 39 0;
#X connect 38 1 39 1;
#X connect 39 0 40 0;
#X connect 40 0 41 0;
#X connect 42 0 44 0;
#X connect 43 0 44 0;
#X connect 44 0 45 1;
#X connect 45 0 46 0;
#X connect 46 0 47 1;
#X connect 47 0 48 0;
#X connect 48 0 49 0;
#X restore 236 367 pd sample_voice;
#N canvas 0 50 450 300 sample_voice 0;
#X obj 225 50 receive sample_start;
#X obj 335 50 receive sample_end;
#X obj 225 75 * 44100;
#X obj 275 75 * 44100;
#X obj 225 100 trigger bang float;
#X obj 225 125 expr ($f2-$f1);
#X obj 225 150 trigger bang float;
#X obj 225 175 expr 1.0/($f2-$f1);
#X obj 450 50 inlet;
#X obj 450 75 unpack 0 0 0 0 0 0 0;
#X obj 450 100 f;
#X obj 500 100 receive sample_base_pitch;
#X obj 450 125 mtof;
#X obj 500 125 mtof;
#X obj 450 150 trigger bang float;
#X obj 450 175 expr $f1/1.0/$f2;
#X floatatom 450 200 5 0 0 0 - - -;
#X obj 675 50 inlet~;
#X obj 225 300 trigger bang float;
#X obj 225 325 *;
#X obj 225 350 <= 0;
#X obj 275 350 moses 0.01;
#X obj 325 350 phasor~ 1;
#X obj 225 375 *~;
#X obj 275 375 -~ 3;
#X obj 325 375 +~;
#X obj 375 375 +~ 1;
#X obj 225 400 tabread4~ array1;
#X obj 550 300 pack 0 0 0 0 0;
#X obj 640 300 route 0;
#X msg 550 325 0;
#X msg 600 325 1 \$2 \, \$5 \$3 \$2;
#X obj 550 350 vline~;
#X obj 550 375 unpack 0 0 0 0 0;
#X obj 550 400 / 128;
#X obj 550 425 line~;
#X floatatom 600 425 5 0 0 0 - - -;
#X obj 550 450 unpack 0 0 0 0 0;
#X obj 640 450 t b f;
#X obj 700 450 delay;
#X obj 750 450 f;
#X msg 800 450 1 \; voice_free \$1;
#X msg 550 475 1;
#X msg 600 475 0 \$3;
#X obj 550 500 vline~;
#X obj 550 525 *~;
#X obj 550 550 *~;
#X obj 400 600 *~;
#X obj 400 625 +~;
#X obj 400 650 outlet~;
#X connect 0 0 2 0;
#X connect 0 0 7 0;
#X connect 1 0 3 0;
#X connect 1 0 6 0;
#X connect 2 0 5 0;
#X connect 2 0 25 1;
#X connect 3 0 4 0;
#X connect 4 0 5 0;
#X connect 4 1 5 1;
#X connect 5 0 23 0;
#X connect 6 0 7 0;
#X connect 6 1 7 1;
#X connect 7 0 19 0;
#X connect 8 0 9 0;
#X connect 9 0 10 0;
#X connect 9 1 20 0;
#X connect 9 1 28 0;
#X connect 9 2 28 1;
#X connect 9 2 42 0;
#X connect 9 3 28 2;
#X connect 9 4 28 4;
#X connect 9 5 28 3;
#X connect 9 6 40 1;
#X connect 10 0 12 0;
#X connect 11 0 13 0;
#X connect 12 0 15 0;
#X connect 13 0 14 0;
#X connect 14 0 15 0;
#X connect 14 1 15 1;
#X connect 15 0 16 0;
#X connect 16 0 18 0;
#X connect 17 0 48 1;
#X connect 18 0 19 0;
#X connect 18 1 19 1;
#X connect 19 0 22 0;
#X connect 20 0 21 0;
#X connect 21 0 22 1;
#X connect 22 0 23 1;
#X connect 23 0 24 0;
#X connect 23 0 25 0;
#X connect 25 0 26 0;
#X connect 26 0 27 0;
#X connect 27 0 47 0;
#X connect 28 0 29 0;
#X connect 29 0 37 0;
#X connect 29 0 43 0;
#X connect 29 1 30 0;
#X connect 29 1 31 0;
#X connect 29 1 33 0;
#X connect 30 0 32 0;
#X connect 31 0 32 0;
#X connect 32 0 45 0;
#X connect 33 0 34 0;
#X connect 34 0 35 0;
#X connect 34 0 36 0;
#X connect 35 0 46 1;
#X connect 37 2 38 0;
#X connect 38 0 39 0;
#X connect 38 1 39 1;
#X connect 39 0 40 0;
#X connect 40 0 41 0;
#X connect 42 0 44 0;
#X connect 43 0 44 0;
#X connect 44 0 45 1;
#X connect 45 0 46 0;
#X connect 46 0 47 1;
#X connect 47 0 48 0;
#X connect 48 0 49 0;
#X restore 237 389 pd sample_voice;
#N canvas 0 50 450 300 sample_voice 0;
#X obj 225 50 receive sample_start;
#X obj 335 50 receive sample_end;
#X obj 225 75 * 44100;
#X obj 275 75 * 44100;
#X obj 225 100 trigger bang float;
#X obj 225 125 expr ($f2-$f1);
#X obj 225 150 trigger bang float;
#X obj 225 175 expr 1.0/($f2-$f1);
#X obj 450 50 inlet;
#X obj 450 75 unpack 0 0 0 0 0 0 0;
#X obj 450 100 f;
#X obj 500 100 receive sample_base_pitch;
#X obj 450 125 mtof;
#X obj 500 125 mtof;
#X obj 450 150 trigger bang float;
#X obj 450 175 expr $f1/1.0/$f2;
#X floatatom 450 200 5 0 0 0 - - -;
#X obj 675 50 inlet~;
#X obj 225 300 trigger bang float;
#X obj 225 325 *;
#X obj 225 350 <= 0;
#X obj 275 350 moses 0.01;
#X obj 325 350 phasor~ 1;
#X obj 225 375 *~;
#X obj 275 375 -~ 3;
#X obj 325 375 +~;
#X obj 375 375 +~ 1;
#X obj 225 400 tabread4~ array1;
#X obj 550 300 pack 0 0 0 0 0;
#X obj 640 300 route 0;
#X msg 550 325 0;
#X msg 600 325 1 \$2 \, \$5 \$3 \$2;
#X obj 550 350 vline~;
#X obj 550 375 unpack 0 0 0 0 0;
#X obj 550 400 / 128;
#X obj 550 425 line~;
#X floatatom 600 425 5 0 0 0 - - -;
#X obj 550 450 unpack 0 0 0 0 0;
#X obj 640 450 t b f;
#X obj 700 450 delay;
#X obj 750 450 f;
#X msg 800 450 1 \; voice_free \$1;
#X msg 550 475 1;
#X msg 600 475 0 \$3;
#X obj 550 500 vline~;
#X obj 550 525 *~;
#X obj 550 550 *~;
#X obj 400 600 *~;
#X obj 400 625 +~;
#X obj 400 650 outlet~;
#X connect 0 0 2 0;
#X connect 0 0 7 0;
#X connect 1 0 3 0;
#X connect 1 0 6 0;
#X connect 2 0 5 0;
#X connect 2 0 25 1;
#X connect 3 0 4 0;
#X connect 4 0 5 0;
#X connect 4 1 5 1;
#X connect 5 0 23 0;
#X connect 6 0 7 0;
#X connect 6 1 7 1;
#X connect 7 0 19 0;
#X connect 8 0 9 0;
#X connect 9 0 10 0;
#X connect 9 1 20 0;
#X connect 9 1 28 0;
#X connect 9 2 28 1;
#X connect 9 2 42 0;
#X connect 9 3 28 2;
#X connect 9 4 28 4;
#X connect 9 5 28 3;
#X connect 9 6 40 1;
#X connect 10 0 12 0;
#X connect 11 0 13 0;
#X connect 12 0 15 0;
#X connect 13 0 14 0;
#X connect 14 0 15 0;
#X connect 14 1 15 1;
#X connect 15 0 16 0;
#X connect 16 0 18 0;
#X connect 17 0 48 1;
#X connect 18 0 19 0;
#X connect 18 1 19 1;
#X connect 19 0 22 0;
#X connect 20 0 21 0;
#X connect 21 0 22 1;
#X connect 22 0 23 1;
#X connect 23 0 24 0;
#X connect 23 0 25 0;
#X connect 25 0 26 0;
#X connect 26 0 27 0;
#X connect 27 0 47 0;
#X connect 28 0 29 0;
#X connect 29 0 37 0;
#X connect 29 0 43 0;
#X connect 29 1 30 0;
#X connect 29 1 31 0;
#X connect 29 1 33 0;
#X connect 30 0 32 0;
#X connect 31 0 32 0;
#X connect 32 0 45 0;
#X connect 33 0 34 0;
#X connect 34 0 35 0;
#X connect 34 0 36 0;
#X connect 35 0 46 1;
#X connect 37 2 38 0;
#X connect 38 0 39 0;
#X connect 38 1 39 1;
#X connect 39 0 40 0;
#X connect 40 0 41 0;
#X connect 42 0 44 0;
#X connect 43 0 44 0;
#X connect 44 0 45 1;
#X connect 45 0 46 0;
#X connect 46 0 47 1;
#X connect 47 0 48 0;
#X connect 48 0 49 0;
#X restore 238 411 pd sample_voice;
#N canvas 0 50 450 300 sample_voice 0;
#X obj 225 50 receive sample_start;
#X obj 335 50 receive sample_end;
#X obj 225 75 * 44100;
#X obj 275 75 * 44100;
#X obj 225 100 trigger bang float;
#X obj 225 125 expr ($f2-$f1);
#X obj 225 150 trigger bang float;
#X obj 225 175 expr 1.0/($f2-$f1);
#X obj 450 50 inlet;
#X obj 450 75 unpack 0 0 0 0 0 0 0;
#X obj 450 100 f;
#X obj 500 100 receive sample_base_pitch;
#X obj 450 125 mtof;
#X obj 500 125 mtof;
#X obj 450 150 trigger bang float;
#X obj 450 175 expr $f1/1.0/$f2;
#X floatatom 450 200 5 0 0 0 - - -;
#X obj 675 50 inlet~;
#X obj 225 300 trigger bang float;
#X obj 225 325 *;
#X obj 225 350 <= 0;
#X obj 275 350 moses 0.01;
#X obj 325 350 phasor~ 1;
#X obj 225 375 *~;
#X obj 275 375 -~ 3;
#X obj 325 375 +~;
#X obj 375 375 +~ 1;
#X obj 225 400 tabread4~ array1;
#X obj 550 300 pack 0 0 0 0 0;
#X obj 640 300 route 0;
#X msg 550 325 0;
#X msg 600 325 1 \$2 \, \$5 \$3 \$2;
#X obj 550 350 vline~;
#X obj 550 375 unpack 0 0 0 0 0;
#X obj 550 400 / 128;
#X obj 550 425 line~;
#X floatatom 600 425 5 0 0 0 - - -;
#X obj 550 450 unpack 0 0 0 0 0;
#X obj 640 450 t b f;
#X obj 700 450 delay;
#X obj 750 450 f;
#X msg 800 450 1 \; voice_free \$1;
#X msg 550 475 1;
#X msg 600 475 0 \$3;
#X obj 550 500 vline~;
#X obj 550 525 *~;
#X obj 550 550 *~;
#X obj 400 600 *~;
#X obj 400 625 +~;
#X obj 400 650 outlet~;
#X connect 0 0 2 0;
#X connect 0 0 7 0;
#X connect 1 0 3 0;
#X connect 1 0 6 0;
#X connect 2 0 5 0;
#X connect 2 0 25 1;
#X connect 3 0 4 0;
#X connect 4 0 5 0;
#X connect 4 1 5 1;
#X connect 5 0 23 0;
#X connect 6 0 7 0;
#X connect 6 1 7 1;
#X connect 7 0 19 0;
#X connect 8 0 9 0;
#X connect 9 0 10 0;
#X connect 9 1 20 0;
#X connect 9 1 28 0;
#X connect 9 2 28 1;
#X connect 9 2 42 0;
#X connect 9 3 28 2;
#X connect 9 4 28 4;
#X connect 9 5 28 3;
#X connect 9 6 40 1;
#X connect 10 0 12 0;
#X connect 11 0 13 0;
#X connect 12 0 15 0;
#X connect 13 0 14 0;
#X connect 14 0 15 0;
#X connect 14 1 15 1;
#X connect 15 0 16 0;
#X connect 16 0 18 0;
#X connect 17 0 48 1;
#X connect 18 0 19 0;
#X connect 18 1 19 1;
#X connect 19 0 22 0;
#X connect 20 0 21 0;
#X connect 21 0 22 1;
#X connect 22 0 23 1;
#X connect 23 0 24 0;
#X connect 23 0 25 0;
#X connect 25 0 26 0;
#X connect 26 0 27 0;
#X connect 27 0 47 0;
#X connect 28 0 29 0;
#X connect 29 0 37 0;
#X connect 29 0 43 0;
#X connect 29 1 30 0;
#X connect 29 1 31 0;
#X connect 29 1 33 0;
#X connect 30 0 32 0;
#X connect 31 0 32 0;
#X connect 32 0 45 0;
#X connect 33 0 34 0;
#X connect 34 0 35 0;
#X connect 34 0 36 0;
#X connect 35 0 46 1;
#X connect 37 2 38 0;
#X connect 38 0 39 0;
#X connect 38 1 39 1;
#X connect 39 0 40 0;
#X connect 40 0 41 0;
#X connect 42 0 44 0;
#X connect 43 0 44 0;
#X connect 44 0 45 1;
#X connect 45 0 46 0;
#X connect 46 0 47 1;
#X connect 47 0 48 0;
#X connect 48 0 49 0;
#X restore 240 432 pd sample_voice;
#N canvas 0 50 450 300 sample_voice 0;
#X obj 225 50 receive sample_start;
#X obj 335 50 receive sample_end;
#X obj 225 75 * 44100;
#X obj 275 75 * 44100;
#X obj 225 100 trigger bang float;
#X obj 225 125 expr ($f2-$f1);
#X obj 225 150 trigger bang float;
#X obj 225 175 expr 1.0/($f2-$f1);
#X obj 450 50 inlet;
#X obj 450 75 unpack 0 0 0 0 0 0 0;
#X obj 450 100 f;
#X obj 500 100 receive sample_base_pitch;
#X obj 450 125 mtof;
#X obj 500 125 mtof;
#X obj 450 150 trigger bang float;
#X obj 450 175 expr $f1/1.0/$f2;
#X floatatom 450 200 5 0 0 0 - - -;
#X obj 675 50 inlet~;
#X obj 225 300 trigger bang float;
#X obj 225 325 *;
#X obj 225 350 <= 0;
#X obj 275 350 moses 0.01;
#X obj 325 350 phasor~ 1;
#X obj 225 375 *~;
#X obj 275 375 -~ 3;
#X obj 325 375 +~;
#X obj 375 375 +~ 1;
#X obj 225 400 tabread4~ array1;
#X obj 550 300 pack 0 0 0 0 0;
#X obj 640 300 route 0;
#X msg 550 325 0;
#X msg 600 325 1 \$2 \, \$5 \$3 \$2;
#X obj 550 350 vline~;
#X obj 550 375 unpack 0 0 0 0 0;
#X obj 550 400 / 128;
#X obj 550 425 line~;
#X floatatom 600 425 5 0 0 0 - - -;
#X obj 550 450 unpack 0 0 0 0 0;
#X obj 640 450 t b f;
#X obj 700 450 delay;
#X obj 750 450 f;
#X msg 800 450 1 \; voice_free \$1;
#X msg 550 475 1;
#X msg 600 475 0 \$3;
#X obj 550 500 vline~;
#X obj 550 525 *~;
#X obj 550 550 *~;
#X obj 400 600 *~;
#X obj 400 625 +~;
#X obj 400 650 outlet~;
#X connect 0 0 2 0;
#X connect 0 0 7 0;
#X connect 1 0 3 0;
#X connect 1 0 6 0;
#X connect 2 0 5 0;
#X connect 2 0 25 1;
#X connect 3 0 4 0;
#X connect 4 0 5 0;
#X connect 4 1 5 1;
#X connect 5 0 23 0;
#X connect 6 0 7 0;
#X connect 6 1 7 1;
#X connect 7 0 19 0;
#X connect 8 0 9 0;
#X connect 9 0 10 0;
#X connect 9 1 20 0;
#X connect 9 1 28 0;
#X connect 9 2 28 1;
#X connect 9 2 42 0;
#X connect 9 3 28 2;
#X connect 9 4 28 4;
#X connect 9 5 28 3;
#X connect 9 6 40 1;
#X connect 10 0 12 0;
#X connect 11 0 13 0;
#X connect 12 0 15 0;
#X connect 13 0 14 0;
#X connect 14 0 15 0;
#X connect 14 1 15 1;
#X connect 15 0 16 0;
#X connect 16 0 18 0;
#X connect 17 0 48 1;
#X connect 18 0 19 0;
#X connect 18 1 19 1;
#X connect 19 0 22 0;
#X connect 20 0 21 0;
#X connect 21 0 22 1;
#X connect 22 0 23 1;
#X connect 23 0 24 0;
#X connect 23 0 25 0;
#X connect 25 0 26 0;
#X connect 26 0 27 0;
#X connect 27 0 47 0;
#X connect 28 0 29 0;
#X connect 29 0 37 0;
#X connect 29 0 43 0;
#X connect 29 1 30 0;
#X connect 29 1 31 0;
#X connect 29 1 33 0;
#X connect 30 0 32 0;
#X connect 31 0 32 0;
#X connect 32 0 45 0;
#X connect 33 0 34 0;
#X connect 34 0 35 0;
#X connect 34 0 36 0;
#X connect 35 0 46 1;
#X connect 37 2 38 0;
#X connect 38 0 39 0;
#X connect 38 1 39 1;
#X connect 39 0 40 0;
#X connect 40 0 41 0;
#X connect 42 0 44 0;
#X connect 43 0 44 0;
#X connect 44 0 45 1;
#X connect 45 0 46 0;
#X connect 46 0 47 1;
#X connect 47 0 48 0;
#X connect 48 0 49 0;
#X restore 241 454 pd sample_voice;
#N canvas 0 50 450 300 sample_voice 0;
#X obj 225 50 receive sample_start;
#X obj 335 50 receive sample_end;
#X obj 225 75 * 44100;
#X obj 275 75 * 44100;
#X obj 225 100 trigger bang float;
#X obj 225 125 expr ($f2-$f1);
#X obj 225 150 trigger bang float;
#X obj 225 175 expr 1.0/($f2-$f1);
#X obj 450 50 inlet;
#X obj 450 75 unpack 0 0 0 0 0 0 0;
#X obj 450 100 f;
#X obj 500 100 receive sample_base_pitch;
#X obj 450 125 mtof;
#X obj 500 125 mtof;
#X obj 450 150 trigger bang float;
#X obj 450 175 expr $f1/1.0/$f2;
#X floatatom 450 200 5 0 0 0 - - -;
#X obj 675 50 inlet~;
#X obj 225 300 trigger bang float;
#X obj 225 325 *;
#X obj 225 350 <= 0;
#X obj 275 350 moses 0.01;
#X obj 325 350 phasor~ 1;
#X obj 225 375 *~;
#X obj 275 375 -~ 3;
#X obj 325 375 +~;
#X obj 375 375 +~ 1;
#X obj 225 400 tabread4~ array1;
#X obj 550 300 pack 0 0 0 0 0;
#X obj 640 300 route 0;
#X msg 550 325 0;
#X msg 600 325 1 \$2 \, \$5 \$3 \$2;
#X obj 550 350 vline~;
#X obj 550 375 unpack 0 0 0 0 0;
#X obj 550 400 / 128;
#X obj 550 425 line~;
#X floatatom 600 425 5 0 0 0 - - -;
#X obj 550 450 unpack 0 0 0 0 0;
#X obj 640 450 t b f;
#X obj 700 450 delay;
#X obj 750 450 f;
#X msg 800 450 1 \; voice_free \$1;
#X msg 550 475 1;
#X msg 600 475 0 \$3;
#X obj 550 500 vline~;
#X obj 550 525 *~;
#X obj 550 550 *~;
#X obj 400 600 *~;
#X obj 400 625 +~;
#X obj 400 650 outlet~;
#X connect 0 0 2 0;
#X connect 0 0 7 0;
#X connect 1 0 3 0;
#X connect 1 0 6 0;
#X connect 2 0 5 0;
#X connect 2 0 25 1;
#X connect 3 0 4 0;
#X connect 4 0 5 0;
#X connect 4 1 5 1;
#X connect 5 0 23 0;
#X connect 6 0 7 0;
#X connect 6 1 7 1;
#X connect 7 0 19 0;
#X connect 8 0 9 0;
#X connect 9 0 10 0;
#X connect 9 1 20 0;
#X connect 9 1 28 0;
#X connect 9 2 28 1;
#X connect 9 2 42 0;
#X connect 9 3 28 2;
#X connect 9 4 28 4;
#X connect 9 5 28 3;
#X connect 9 6 40 1;
#X connect 10 0 12 0;
#X connect 11 0 13 0;
#X connect 12 0 15 0;
#X connect 13 0 14 0;
#X connect 14 0 15 0;
#X connect 14 1 15 1;
#X connect 15 0 16 0;
#X connect 16 0 18 0;
#X connect 17 0 48 1;
#X connect 18 0 19 0;
#X connect 18 1 19 1;
#X connect 19 0 22 0;
#X connect 20 0 21 0;
#X connect 21 0 22 1;
#X connect 22 0 23 1;
#X connect 23 0 24 0;
#X connect 23 0 25 0;
#X connect 25 0 26 0;
#X connect 26 0 27 0;
#X connect 27 0 47 0;
#X connect 28 0 29 0;
#X connect 29 0 37 0;
#X connect 29 0 43 0;
#X connect 29 1 30 0;
#X connect 29 1 31 0;
#X connect 29 1 33 0;
#X connect 30 0 32 0;
#X connect 31 0 32 0;
#X connect 32 0 45 0;
#X connect 33 0 34 0;
#X connect 34 0 35 0;
#X connect 34 0 36 0;
#X connect 35 0 46 1;
#X connect 37 2 38 0;
#X connect 38 0 39 0;
#X connect 38 1 39 1;
#X connect 39 0 40 0;
#X connect 40 0 41 0;
#X connect 42 0 44 0;
#X connect 43 0 44 0;
#X connect 44 0 45 1;
#X connect 45 0 46 0;
#X connect 46 0 47 1;
#X connect 47 0 48 0;
#X connect 48 0 49 0;
#X restore 242 476 pd sample_voice;
#N canvas 0 50 450 300 sample_voice 0;
#X obj 225 50 receive sample_start;
#X obj 335 50 receive sample_end;
#X obj 225 75 * 44100;
#X obj 275 75 * 44100;
#X obj 225 100 trigger bang float;
#X obj 225 125 expr ($f2-$f1);
#X obj 225 150 trigger bang float;
#X obj 225 175 expr 1.0/($f2-$f1);
#X obj 450 50 inlet;
#X obj 450 75 unpack 0 0 0 0 0 0 0;
#X obj 450 100 f;
#X obj 500 100 receive sample_base_pitch;
#X obj 450 125 mtof;
#X obj 500 125 mtof;
#X obj 450 150 trigger bang float;
#X obj 450 175 expr $f1/1.0/$f2;
#X floatatom 450 200 5 0 0 0 - - -;
#X obj 675 50 inlet~;
#X obj 225 300 trigger bang float;
#X obj 225 325 *;
#X obj 225 350 <= 0;
#X obj 275 350 moses 0.01;
#X obj 325 350 phasor~ 1;
#X obj 225 375 *~;
#X obj 275 375 -~ 3;
#X obj 325 375 +~;
#X obj 375 375 +~ 1;
#X obj 225 400 tabread4~ array1;
#X obj 550 300 pack 0 0 0 0 0;
#X obj 640 300 route 0;
#X msg 550 325 0;
#X msg 600 325 1 \$2 \, \$5 \$3 \$2;
#X obj 550 350 vline~;
#X obj 550 375 unpack 0 0 0 0 0;
#X obj 550 400 / 128;
#X obj 550 425 line~;
#X floatatom 600 425 5 0 0 0 - - -;
#X obj 550 450 unpack 0 0 0 0 0;
#X obj 640 450 t b f;
#X obj 700 450 delay;
#X obj 750 450 f;
#X msg 800 450 1 \; voice_free \$1;
#X msg 550 475 1;
#X msg 600 475 0 \$3;
#X obj 550 500 vline~;
#X obj 550 525 *~;
#X obj 550 550 *~;
#X obj 400 600 *~;
#X obj 400 625 +~;
#X obj 400 650 outlet~;
#X connect 0 0 2 0;
#X connect 0 0 7 0;
#X connect 1 0 3 0;
#X connect 1 0 6 0;
#X connect 2 0 5 0;
#X connect 2 0 25 1;
#X connect 3 0 4 0;
#X connect 4 0 5 0;
#X connect 4 1 5 1;
#X connect 5 0 23 0;
#X connect 6 0 7 0;
#X connect 6 1 7 1;
#X connect 7 0 19 0;
#X connect 8 0 9 0;
#X connect 9 0 10 0;
#X connect 9 1 20 0;
#X connect 9 1 28 0;
#X connect 9 2 28 1;
#X connect 9 2 42 0;
#X connect 9 3 28 2;
#X connect 9 4 28 4;
#X connect 9 5 28 3;
#X connect 9 6 40 1;
#X connect 10 0 12 0;
#X connect 11 0 13 0;
#X connect 12 0 15 0;
#X connect 13 0 14 0;
#X connect 14 0 15 0;
#X connect 14 1 15 1;
#X connect 15 0 16 0;
#X connect 16 0 18 0;
#X connect 17 0 48 1;
#X connect 18 0 19 0;
#X connect 18 1 19 1;
#X connect 19 0 22 0;
#X connect 20 0 21 0;
#X connect 21 0 22 1;
#X connect 22 0 23 1;
#X connect 23 0 24 0;
#X connect 23 0 25 0;
#X connect 25 0 26 0;
#X connect 26 0 27 0;
#X connect 27 0 47 0;
#X connect 28 0 29 0;
#X connect 29 0 37 0;
#X connect 29 0 43 0;
#X connect 29 1 30 0;
#X connect 29 1 31 0;
#X connect 29 1 33 0;
#X connect 30 0 32 0;
#X connect 31 0 32 0;
#X connect 32 0 45 0;
#X connect 33 0 34 0;
#X connect 34 0 35 0;
#X connect 34 0 36 0;
#X connect 35 0 46 1;
#X connect 37 2 38 0;
#X connect 38 0 39 0;
#X connect 38 1 39 1;
#X connect 39 0 40 0;
#X connect 40 0 41 0;
#X connect 42 0 44 0;
#X connect 43 0 44 0;
#X connect 44 0 45 1;
#X connect 45 0 46 0;
#X connect 46 0 47 1;
#X connect 47 0 48 0;
#X connect 48 0 49 0;
#X restore 390 281 pd sample_voice;
#N canvas 0 50 450 300 sample_voice 0;
#X obj 225 50 receive sample_start;
#X obj 335 50 receive sample_end;
#X obj 225 75 * 44100;
#X obj 275 75 * 44100;
#X obj 225 100 trigger bang float;
#X obj 225 125 expr ($f2-$f1);
#X obj 225 150 trigger bang float;
#X obj 225 175 expr 1.0/($f2-$f1);
#X obj 450 50 inlet;
#X obj 450 75 unpack 0 0 0 0 0 0 0;
#X obj 450 100 f;
#X obj 500 100 receive sample_base_pitch;
#X obj 450 125 mtof;
#X obj 500 125 mtof;
#X obj 450 150 trigger bang float;
#X obj 450 175 expr $f1/1.0/$f2;
#X floatatom 450 200 5 0 0 0 - - -;
#X obj 675 50 inlet~;
#X obj 225 300 trigger bang float;
#X obj 225 325 *;
#X obj 225 350 <= 0;
#X obj 275 350 moses 0.01;
#X obj 325 350 phasor~ 1;
#X obj 225 375 *~;
#X obj 275 375 -~ 3;
#X obj 325 375 +~;
#X obj 375 375 +~ 1;
#X obj 225 400 tabread4~ array1;
#X obj 550 300 pack 0 0 0 0 0;
#X obj 640 300 route 0;
#X msg 550 325 0;
#X msg 600 325 1 \$2 \, \$5 \$3 \$2;
#X obj 550 350 vline~;
#X obj 550 375 unpack 0 0 0 0 0;
#X obj 550 400 / 128;
#X obj 550 425 line~;
#X floatatom 600 425 5 0 0 0 - - -;
#X obj 550 450 unpack 0 0 0 0 0;
#X obj 640 450 t b f;
#X obj 700 450 delay;
#X obj 750 450 f;
#X msg 800 450 1 \; voice_free \$1;
#X msg 550 475 1;
#X msg 600 475 0 \$3;
#X obj 550 500 vline~;
#X obj 550 525 *~;
#X obj 550 550 *~;
#X obj 400 600 *~;
#X obj 400 625 +~;
#X obj 400 650 outlet~;
#X connect 0 0 2 0;
#X connect 0 0 7 0;
#X connect 1 0 3 0;
#X connect 1 0 6 0;
#X connect 2 0 5 0;
#X connect 2 0 25 1;
#X connect 3 0 4 0;
#X connect 4 0 5 0;
#X connect 4 1 5 1;
#X connect 5 0 23 0;
#X connect 6 0 7 0;
#X connect 6 1 7 1;
#X connect 7 0 19 0;
#X connect 8 0 9 0;
#X connect 9 0 10 0;
#X connect 9 1 20 0;
#X connect 9 1 28 0;
#X connect 9 2 28 1;
#X connect 9 2 42 0;
#X connect 9 3 28 2;
#X connect 9 4 28 4;
#X connect 9 5 28 3;
#X connect 9 6 40 1;
#X connect 10 0 12 0;
#X connect 11 0 13 0;
#X connect 12 0 15 0;
#X connect 13 0 14 0;
#X connect 14 0 15 0;
#X connect 14 1 15 1;
#X connect 15 0 16 0;
#X connect 16 0 18 0;
#X connect 17 0 48 1;
#X connect 18 0 19 0;
#X connect 18 1 19 1;
#X connect 19 0 22 0;
#X connect 20 0 21 0;
#X connect 21 0 22 1;
#X connect 22 0 23 1;
#X connect 23 0 24 0;
#X connect 23 0 25 0;
#X connect 25 0 26 0;
#X connect 26 0 27 0;
#X connect 27 0 47 0;
#X connect 28 0 29 0;
#X connect 29 0 37 0;
#X connect 29 0 43 0;
#X connect 29 1 30 0;
#X connect 29 1 31 0;
#X connect 29 1 33 0;
#X connect 30 0 32 0;
#X connect 31 0 32 0;
#X connect 32 0 45 0;
#X connect 33 0 34 0;
#X connect 34 0 35 0;
#X connect 34 0 36 0;
#X connect 35 0 46 1;
#X connect 37 2 38 0;
#X connect 38 0 39 0;
#X connect 38 1 39 1;
#X connect 39 0 40 0;
#X connect 40 0 41 0;
#X connect 42 0 44 0;
#X connect 43 0 44 0;
#X connect 44 0 45 1;
#X connect 45 0 46 0;
#X connect 46 0 47 1;
#X connect 47 0 48 0;
#X connect 48 0 49 0;
#X restore 391 303 pd sample_voice;
#N canvas 0 50 450 300 sample_voice 0;
#X obj 225 50 receive sample_start;
#X obj 335 50 receive sample_end;
#X obj 225 75 * 44100;
#X obj 275 75 * 44100;
#X obj 225 100 trigger bang float;
#X obj 225 125 expr ($f2-$f1);
#X obj 225 150 trigger bang float;
#X obj 225 175 expr 1.0/($f2-$f1);
#X obj 450 50 inlet;
#X obj 450 75 unpack 0 0 0 0 0 0 0;
#X obj 450 100 f;
#X obj 500 100 receive sample_base_pitch;
#X obj 450 125 mtof;
#X obj 500 125 mtof;
#X obj 450 150 trigger bang float;
#X obj 450 175 expr $f1/1.0/$f2;
#X floatatom 450 200 5 0 0 0 - - -;
#X obj 675 50 inlet~;
#X obj 225 300 trigger bang float;
#X obj 225 325 *;
#X obj 225 350 <= 0;
#X obj 275 350 moses 0.01;
#X obj 325 350 phasor~ 1;
#X obj 225 375 *~;
#X obj 275 375 -~ 3;
#X obj 325 375 +~;
#X obj 375 375 +~ 1;
#X obj 225 400 tabread4~ array1;
#X obj 550 300 pack 0 0 0 0 0;
#X obj 640 300 route 0;
#X msg 550 325 0;
#X msg 600 325 1 \$2 \, \$5 \$3 \$2;
#X obj 550 350 vline~;
#X obj 550 375 unpack 0 0 0 0 0;
#X obj 550 400 / 128;
#X obj 550 425 line~;
#X floatatom 600 425 5 0 0 0 - - -;
#X obj 550 450 unpack 0 0 0 0 0;
#X obj 640 450 t b f;
#X obj 700 450 delay;
#X obj 750 450 f;
#X msg 800 450 1 \; voice_free \$1;
#X msg 550 475 1;
#X msg 600 475 0 \$3;
#X obj 550 500 vline~;
#X obj 550 525 *~;
#X obj 550 550 *~;
#X obj 400 600 *~;
#X obj 400 625 +~;
#X obj 400 650 outlet~;
#X connect 0 0 2 0;
#X connect 0 0 7 0;
#X connect 1 0 3 0;
#X connect 1 0 6 0;
#X connect 2 0 5 0;
#X connect 2 0 25 1;
#X connect 3 0 4 0;
#X connect 4 0 5 0;
#X connect 4 1 5 1;
#X connect 5 0 23 0;
#X connect 6 0 7 0;
#X connect 6 1 7 1;
#X connect 7 0 19 0;
#X connect 8 0 9 0;
#X connect 9 0 10 0;
#X connect 9 1 20 0;
#X connect 9 1 28 0;
#X connect 9 2 28 1;
#X connect 9 2 42 0;
#X connect 9 3 28 2;
#X connect 9 4 28 4;
#X connect 9 5 28 3;
#X connect 9 6 40 1;
#X connect 10 0 12 0;
#X connect 11 0 13 0;
#X connect 12 0 15 0;
#X connect 13 0 14 0;
#X connect 14 0 15 0;
#X connect 14 1 15 1;
#X connect 15 0 16 0;
#X connect 16 0 18 0;
#X connect 17 0 48 1;
#X connect 18 0 19 0;
#X connect 18 1 19 1;
#X connect 19 0 22 0;
#X connect 20 0 21 0;
#X connect 21 0 22 1;
#X connect 22 0 23 1;
#X connect 23 0 24 0;
#X connect 23 0 25 0;
#X connect 25 0 26 0;
#X connect 26 0 27 0;
#X connect 27 0 47 0;
#X connect 28 0 29 0;
#X connect 29 0 37 0;
#X connect 29 0 43 0;
#X connect 29 1 30 0;
#X connect 29 1 31 0;
#X connect 29 1 33 0;
#X connect 30 0 32 0;
#X connect 31 0 32 0;
#X connect 32 0 45 0;
#X connect 33 0 34 0;
#X connect 34 0 35 0;
#X connect 34 0 36 0;
#X connect 35 0 46 1;
#X connect 37 2 38 0;
#X connect 38 0 39 0;
#X connect 38 1 39 1;
#X connect 39 0 40 0;
#X connect 40 0 41 0;
#X connect 42 0 44 0;
#X connect 43 0 44 0;
#X connect 44 0 45 1;
#X connect 45 0 46 0;
#X connect 46 0 47 1;
#X connect 47 0 48 0;
#X connect 48 0 49 0;
#X restore 392 325 pd sample_voice;
#N canvas 0 50 450 300 sample_voice 0;
#X obj 225 50 receive sample_start;
#X obj 335 50 receive sample_end;
#X obj 225 75 * 44100;
#X obj 275 75 * 44100;
#X obj 225 100 trigger bang float;
#X obj 225 125 expr ($f2-$f1);
#X obj 225 150 trigger bang float;
#X obj 225 175 expr 1.0/($f2-$f1);
#X obj 450 50 inlet;
#X obj 450 75 unpack 0 0 0 0 0 0 0;
#X obj 450 100 f;
#X obj 500 100 receive sample_base_pitch;
#X obj 450 125 mtof;
#X obj 500 125 mtof;
#X obj 450 150 trigger bang float;
#X obj 450 175 expr $f1/1.0/$f2;
#X floatatom 450 200 5 0 0 0 - - -;
#X obj 675 50 inlet~;
#X obj 225 300 trigger bang float;
#X obj 225 325 *;
#X obj 225 350 <= 0;
#X obj 275 350 moses 0.01;
#X obj 325 350 phasor~ 1;
#X obj 225 375 *~;
#X obj 275 375 -~ 3;
#X obj 325 375 +~;
#X obj 375 375 +~ 1;
#X obj 225 400 tabread4~ array1;
#X obj 550 300 pack 0 0 0 0 0;
#X obj 640 300 route 0;
#X msg 550 325 0;
#X msg 600 325 1 \$2 \, \$5 \$3 \$2;
#X obj 550 350 vline~;
#X obj 550 375 unpack 0 0 0 0 0;
#X obj 550 400 / 128;
#X obj 550 425 line~;
#X floatatom 600 425 5 0 0 0 - - -;
#X obj 550 450 unpack 0 0 0 0 0;
#X obj 640 450 t b f;
#X obj 700 450 delay;
#X obj 750 450 f;
#X msg 800 450 1 \; voice_free \$1;
#X msg 550 475 1;
#X msg 600 475 0 \$3;
#X obj 550 500 vline~;
#X obj 550 525 *~;
#X obj 550 550 *~;
#X obj 400 600 *~;
#X obj 400 625 +~;
#X obj 400 650 outlet~;
#X connect 0 0 2 0;
#X connect 0 0 7 0;
#X connect 1 0 3 0;
#X connect 1 0 6 0;
#X connect 2 0 5 0;
#X connect 2 0 25 1;
#X connect 3 0 4 0;
#X connect 4 0 5 0;
#X connect 4 1 5 1;
#X connect 5 0 23 0;
#X connect 6 0 7 0;
#X connect 6 1 7 1;
#X connect 7 0 19 0;
#X connect 8 0 9 0;
#X connect 9 0 10 0;
#X connect 9 1 20 0;
#X connect 9 1 28 0;
#X connect 9 2 28 1;
#X connect 9 2 42 0;
#X connect 9 3 28 2;
#X connect 9 4 28 4;
#X connect 9 5 28 3;
#X connect 9 6 40 1;
#X connect 10 0 12 0;
#X connect 11 0 13 0;
#X connect 12 0 15 0;
#X connect 13 0 14 0;
#X connect 14 0 15 0;
#X connect 14 1 15 1;
#X connect 15 0 16 0;
#X connect 16 0 18 0;
#X connect 17 0 48 1;
#X connect 18 0 19 0;
#X connect 18 1 19 1;
#X connect 19 0 22 0;
#X connect 20 0 21 0;
#X connect 21 0 22 1;
#X connect 22 0 23 1;
#X connect 23 0 24 0;
#X connect 23 0 25 0;
#X connect 25 0 26 0;
#X connect 26 0 27 0;
#X connect 27 0 47 0;
#X connect 28 0 29 0;
#X connect 29 0 37 0;
#X connect 29 0 43 0;
#X connect 29 1 30 0;
#X connect 29 1 31 0;
#X connect 29 1 33 0;
#X connect 30 0 32 0;
#X connect 31 0 32 0;
#X connect 32 0 45 0;
#X connect 33 0 34 0;
#X connect 34 0 35 0;
#X connect 34 0 36 0;
#X connect 35 0 46 1;
#X connect 37 2 38 0;
#X connect 38 0 39 0;
#X connect 38 1 39 1;
#X connect 39 0 40 0;
#X connect 40 0 41 0;
#X connect 42 0 44 0;
#X connect 43 0 44 0;
#X connect 44 0 45 1;
#X connect 45 0 46 0;
#X connect 46 0 47 1;
#X connect 47 0 48 0;
#X connect 48 0 49 0;
#X restore 392 348 pd sample_voice;
#N canvas 0 50 450 300 sample_voice 0;
#X obj 225 50 receive sample_start;
#X obj 335 50 receive sample_end;
#X obj 225 75 * 44100;
#X obj 275 75 * 44100;
#X obj 225 100 trigger bang float;
#X obj 225 125 expr ($f2-$f1);
#X obj 225 150 trigger bang float;
#X obj 225 175 expr 1.0/($f2-$f1);
#X obj 450 50 inlet;
#X obj 450 75 unpack 0 0 0 0 0 0 0;
#X obj 450 100 f;
#X obj 500 100 receive sample_base_pitch;
#X obj 450 125 mtof;
#X obj 500 125 mtof;
#X obj 450 150 trigger bang float;
#X obj 450 175 expr $f1/1.0/$f2;
#X floatatom 450 200 5 0 0 0 - - -;
#X obj 675 50 inlet~;
#X obj 225 300 trigger bang float;
#X obj 225 325 *;
#X obj 225 350 <= 0;
#X obj 275 350 moses 0.01;
#X obj 325 350 phasor~ 1;
#X obj 225 375 *~;
#X obj 275 375 -~ 3;
#X obj 325 375 +~;
#X obj 375 375 +~ 1;
#X obj 225 400 tabread4~ array1;
#X obj 550 300 pack 0 0 0 0 0;
#X obj 640 300 route 0;
#X msg 550 325 0;
#X msg 600 325 1 \$2 \, \$5 \$3 \$2;
#X obj 550 350 vline~;
#X obj 550 375 unpack 0 0 0 0 0;
#X obj 550 400 / 128;
#X obj 550 425 line~;
#X floatatom 600 425 5 0 0 0 - - -;
#X obj 550 450 unpack 0 0 0 0 0;
#X obj 640 450 t b f;
#X obj 700 450 delay;
#X obj 750 450 f;
#X msg 800 450 1 \; voice_free \$1;
#X msg 550 475 1;
#X msg 600 475 0 \$3;
#X obj 550 500 vline~;
#X obj 550 525 *~;
#X obj 550 550 *~;
#X obj 400 600 *~;
#X obj 400 625 +~;
#X obj 400 650 outlet~;
#X connect 0 0 2 0;
#X connect 0 0 7 0;
#X connect 1 0 3 0;
#X connect 1 0 6 0;
#X connect 2 0 5 0;
#X connect 2 0 25 1;
#X connect 3 0 4 0;
#X connect 4 0 5 0;
#X connect 4 1 5 1;
#X connect 5 0 23 0;
#X connect 6 0 7 0;
#X connect 6 1 7 1;
#X connect 7 0 19 0;
#X connect 8 0 9 0;
#X connect 9 0 10 0;
#X connect 9 1 20 0;
#X connect 9 1 28 0;
#X connect 9 2 28 1;
#X connect 9 2 42 0;
#X connect 9 3 28 2;
#X connect 9 4 28 4;
#X connect 9 5 28 3;
#X connect 9 6 40 1;
#X connect 10 0 12 0;
#X connect 11 0 13 0;
#X connect 12 0 15 0;
#X connect 13 0 14 0;
#X connect 14 0 15 0;
#X connect 14 1 15 1;
#X connect 15 0 16 0;
#X connect 16 0 18 0;
#X connect 17 0 48 1;
#X connect 18 0 19 0;
#X connect 18 1 19 1;
#X connect 19 0 22 0;
#X connect 20 0 21 0;
#X connect 21 0 22 1;
#X connect 22 0 23 1;
#X connect 23 0 24 0;
#X connect 23 0 25 0;
#X connect 25 0 26 0;
#X connect 26 0 27 0;
#X connect 27 0 47 0;
#X connect 28 0 29 0;
#X connect 29 0 37 0;
#X connect 29 0 43 0;
#X connect 29 1 30 0;
#X connect 29 1 31 0;
#X connect 29 1 33 0;
#X connect 30 0 32 0;
#X connect 31 0 32 0;
#X connect 32 0 45 0;
#X connect 33 0 34 0;
#X connect 34 0 35 0;
#X connect 34 0 36 0;
#X connect 35 0 46 1;
#X connect 37 2 38 0;
#X connect 38 0 39 0;
#X connect 38 1 39 1;
#X connect 39 0 40 0;
#X connect 40 0 41 0;
#X connect 42 0 44 0;
#X connect 43 0 44 0;
#X connect 44 0 45 1;
#X connect 45 0 46 0;
#X connect 46 0 47 1;
#X connect 47 0 48 0;
#X connect 48 0 49 0;
#X restore 393 370 pd sample_voice;
#N canvas 0 50 450 300 sample_voice 0;
#X obj 225 50 receive sample_start;
#X obj 335 50 receive sample_end;
#X obj 225 75 * 44100;
#X obj 275 75 * 44100;
#X obj 225 100 trigger bang float;
#X obj 225 125 expr ($f2-$f1);
#X obj 225 150 trigger bang float;
#X obj 225 175 expr 1.0/($f2-$f1);
#X obj 450 50 inlet;
#X obj 450 75 unpack 0 0 0 0 0 0 0;
#X obj 450 100 f;
#X obj 500 100 receive sample_base_pitch;
#X obj 450 125 mtof;
#X obj 500 125 mtof;
#X obj 450 150 trigger bang float;
#X obj 450 175 expr $f1/1.0/$f2;
#X floatatom 450 200 5 0 0 0 - - -;
#X obj 675 50 inlet~;
#X obj 225 300 trigger bang float;
#X obj 225 325 *;
#X obj 225 350 <= 0;
#X obj 275 350 moses 0.01;
#X obj 325 350 phasor~ 1;
#X obj 225 375 *~;
#X obj 275 375 -~ 3;
#X obj 325 375 +~;
#X obj 375 375 +~ 1;
#X obj 225 400 tabread4~ array1;
#X obj 550 300 pack 0 0 0 0 0;
#X obj 640 300 route 0;
#X msg 550 325 0;
#X msg 600 325 1 \$2 \, \$5 \$3 \$2;
#X obj 550 350 vline~;
#X obj 550 375 unpack 0 0 0 0 0;
#X obj 550 400 / 128;
#X obj 550 425 line~;
#X floatatom 600 425 5 0 0 0 - - -;
#X obj 550 450 unpack 0 0 0 0 0;
#X obj 640 450 t b f;
#X obj 700 450 delay;
#X obj 750 450 f;
#X msg 800 450 1 \; voice_free \$1;
#X msg 550 475 1;
#X msg 600 475 0 \$3;
#X obj 550 500 vline~;
#X obj 550 525 *~;
#X obj 550 550 *~;
#X obj 400 600 *~;
#X obj 400 625 +~;
#X obj 400 650 outlet~;
#X connect 0 0 2 0;
#X connect 0 0 7 0;
#X connect 1 0 3 0;
#X connect 1 0 6 0;
#X connect 2 0 5 0;
#X connect 2 0 25 1;
#X connect 3 0 4 0;
#X connect 4 0 5 0;
#X connect 4 1 5 1;
#X connect 5 0 23 0;
#X connect 6 0 7 0;
#X connect 6 1 7 1;
#X connect 7 0 19 0;
#X connect 8 0 9 0;
#X connect 9 0 10 0;
#X connect 9 1 20 0;
#X connect 9 1 28 0;
#X connect 9 2 28 1;
#X connect 9 2 42 0;
#X connect 9 3 28 2;
#X connect 9 4 28 4;
#X connect 9 5 28 3;
#X connect 9 6 40 1;
#X connect 10 0 12 0;
#X connect 11 0 13 0;
#X connect 12 0 15 0;
#X connect 13 0 14 0;
#X connect 14 0 15 0;
#X connect 14 1 15 1;
#X connect 15 0 16 0;
#X connect 16 0 18 0;
#X connect 17 0 48 1;
#X connect 18 0 19 0;
#X connect 18 1 19 1;
#X connect 19 0 22 0;
#X connect 20 0 21 0;
#X connect 21 0 22 1;
#X connect 22 0 23 1;
#X connect 23 0 24 0;
#X connect 23 0 25 0;
#X connect 25 0 26 0;
#X connect 26 0 27 0;
#X connect 27 0 47 0;
#X connect 28 0 29 0;
#X connect 29 0 37 0;
#X connect 29 0 43 0;
#X connect 29 1 30 0;
#X connect 29 1 31 0;
#X connect 29 1 33 0;
#X connect 30 0 32 0;
#X connect 31 0 32 0;
#X connect 32 0 45 0;
#X connect 33 0 34 0;
#X connect 34 0 35 0;
#X connect 34 0 36 0;
#X connect 35 0 46 1;
#X connect 37 2 38 0;
#X connect 38 0 39 0;
#X connect 38 1 39 1;
#X connect 39 0 40 0;
#X connect 40 0 41 0;
#X connect 42 0 44 0;
#X connect 43 0 44 0;
#X connect 44 0 45 1;
#X connect 45 0 46 0;
#X connect 46 0 47 1;
#X connect 47 0 48 0;
#X connect 48 0 49 0;
#X restore 394 392 pd sample_voice;
#N canvas 0 50 450 300 sample_voice 0;
#X obj 225 50 receive sample_start;
#X obj 335 50 receive sample_end;
#X obj 225 75 * 44100;
#X obj 275 75 * 44100;
#X obj 225 100 trigger bang float;
#X obj 225 125 expr ($f2-$f1);
#X obj 225 150 trigger bang float;
#X obj 225 175 expr 1.0/($f2-$f1);
#X obj 450 50 inlet;
#X obj 450 75 unpack 0 0 0 0 0 0 0;
#X obj 450 100 f;
#X obj 500 100 receive sample_base_pitch;
#X obj 450 125 mtof;
#X obj 500 125 mtof;
#X obj 450 150 trigger bang float;
#X obj 450 175 expr $f1/1.0/$f2;
#X floatatom 450 200 5 0 0 0 - - -;
#X obj 675 50 inlet~;
#X obj 225 300 trigger bang float;
#X obj 225 325 *;
#X obj 225 350 <= 0;
#X obj 275 350 moses 0.01;
#X obj 325 350 phasor~ 1;
#X obj 225 375 *~;
#X obj 275 375 -~ 3;
#X obj 325 375 +~;
#X obj 375 375 +~ 1;
#X obj 225 400 tabread4~ array1;
#X obj 550 300 pack 0 0 0 0 0;
#X obj 640 300 route 0;
#X msg 550 325 0;
#X msg 600 325 1 \$2 \, \$5 \$3 \$2;
#X obj 550 350 vline~;
#X obj 550 375 unpack 0 0 0 0 0;
#X obj 550 400 / 128;
#X obj 550 425 line~;
#X floatatom 600 425 5 0 0 0 - - -;
#X obj 550 450 unpack 0 0 0 0 0;
#X obj 640 450 t b f;
#X obj 700 450 delay;
#X obj 750 450 f;
#X msg 800 450 1 \; voice_free \$1;
#X msg 550 475 1;
#X msg 600 475 0 \$3;
#X obj 550 500 vline~;
#X obj 550 525 *~;
#X obj 550 550 *~;
#X obj 400 600 *~;
#X obj 400 625 +~;
#X obj 400 650 outlet~;
#X connect 0 0 2 0;
#X connect 0 0 7 0;
#X connect 1 0 3 0;
#X connect 1 0 6 0;
#X connect 2 0 5 0;
#X connect 2 0 25 1;
#X connect 3 0 4 0;
#X connect 4 0 5 0;
#X connect 4 1 5 1;
#X connect 5 0 23 0;
#X connect 6 0 7 0;
#X connect 6 1 7 1;
#X connect 7 0 19 0;
#X connect 8 0 9 0;
#X connect 9 0 10 0;
#X connect 9 1 20 0;
#X connect 9 1 28 0;
#X connect 9 2 28 1;
#X connect 9 2 42 0;
#X connect 9 3 28 2;
#X connect 9 4 28 4;
#X connect 9 5 28 3;
#X connect 9 6 40 1;
#X connect 10 0 12 0;
#X connect 11 0 13 0;
#X connect 12 0 15 0;
#X connect 13 0 14 0;
#X connect 14 0 15 0;
#X connect 14 1 15 1;
#X connect 15 0 16 0;
#X connect 16 0 18 0;
#X connect 17 0 48 1;
#X connect 18 0 19 0;
#X connect 18 1 19 1;
#X connect 19 0 22 0;
#X connect 20 0 21 0;
#X connect 21 0 22 1;
#X connect 22 0 23 1;
#X connect 23 0 24 0;
#X connect 23 0 25 0;
#X connect 25 0 26 0;
#X connect 26 0 27 0;
#X connect 27 0 47 0;
#X connect 28 0 29 0;
#X connect 29 0 37 0;
#X connect 29 0 43 0;
#X connect 29 1 30 0;
#X connect 29 1 31 0;
#X connect 29 1 33 0;
#X connect 30 0 32 0;
#X connect 31 0 32 0;
#X connect 32 0 45 0;
#X connect 33 0 34 0;
#X connect 34 0 35 0;
#X connect 34 0 36 0;
#X connect 35 0 46 1;
#X connect 37 2 38 0;
#X connect 38 0 39 0;
#X connect 38 1 39 1;
#X connect 39 0 40 0;
#X connect 40 0 41 0;
#X connect 42 0 44 0;
#X connect 43 0 44 0;
#X connect 44 0 45 1;
#X connect 45 0 46 0;
#X connect 46 0 47 1;
#X connect 47 0 48 0;
#X connect 48 0 49 0;
#X restore 397 413 pd sample_voice;
#N canvas 0 50 450 300 sample_voice 0;
#X obj 225 50 receive sample_start;
#X obj 335 50 receive sample_end;
#X obj 225 75 * 44100;
#X obj 275 75 * 44100;
#X obj 225 100 trigger bang float;
#X obj 225 125 expr ($f2-$f1);
#X obj 225 150 trigger bang float;
#X obj 225 175 expr 1.0/($f2-$f1);
#X obj 450 50 inlet;
#X obj 450 75 unpack 0 0 0 0 0 0 0;
#X obj 450 100 f;
#X obj 500 100 receive sample_base_pitch;
#X obj 450 125 mtof;
#X obj 500 125 mtof;
#X obj 450 150 trigger bang float;
#X obj 450 175 expr $f1/1.0/$f2;
#X floatatom 450 200 5 0 0 0 - - -;
#X obj 675 50 inlet~;
#X obj 225 300 trigger bang float;
#X obj 225 325 *;
#X obj 225 350 <= 0;
#X obj 275 350 moses 0.01;
#X obj 325 350 phasor~ 1;
#X obj 225 375 *~;
#X obj 275 375 -~ 3;
#X obj 325 375 +~;
#X obj 375 375 +~ 1;
#X obj 225 400 tabread4~ array1;
#X obj 550 300 pack 0 0 0 0 0;
#X obj 640 300 route 0;
#X msg 550 325 0;
#X msg 600 325 1 \$2 \, \$5 \$3 \$2;
#X obj 550 350 vline~;
#X obj 550 375 unpack 0 0 0 0 0;
#X obj 550 400 / 128;
#X obj 550 425 line~;
#X floatatom 600 425 5 0 0 0 - - -;
#X obj 550 450 unpack 0 0 0 0 0;
#X obj 640 450 t b f;
#X obj 700 450 delay;
#X obj 750 450 f;
#X msg 800 450 1 \; voice_free \$1;
#X msg 550 475 1;
#X msg 600 475 0 \$3;
#X obj 550 500 vline~;
#X obj 550 525 *~;
#X obj 550 550 *~;
#X obj 400 600 *~;
#X obj 400 625 +~;
#X obj 400 650 outlet~;
#X connect 0 0 2 0;
#X connect 0 0 7 0;
#X connect 1 0 3 0;
#X connect 1 0 6 0;
#X connect 2 0 5 0;
#X connect 2 0 25 1;
#X connect 3 0 4 0;
#X connect 4 0 5 0;
#X connect 4 1 5 1;
#X connect 5 0 23 0;
#X connect 6 0 7 0;
#X connect 6 1 7 1;
#X connect 7 0 19 0;
#X connect 8 0 9 0;
#X connect 9 0 10 0;
#X connect 9 1 20 0;
#X connect 9 1 28 0;
#X connect 9 2 28 1;
#X connect 9 2 42 0;
#X connect 9 3 28 2;
#X connect 9 4 28 4;
#X connect 9 5 28 3;
#X connect 9 6 40 1;
#X connect 10 0 12 0;
#X connect 11 0 13 0;
#X connect 12 0 15 0;
#X connect 13 0 14 0;
#X connect 14 0 15 0;
#X connect 14 1 15 1;
#X connect 15 0 16 0;
#X connect 16 0 18 0;
#X connect 17 0 48 1;
#X connect 18 0 19 0;
#X connect 18 1 19 1;
#X connect 19 0 22 0;
#X connect 20 0 21 0;
#X connect 21 0 22 1;
#X connect 22 0 23 1;
#X connect 23 0 24 0;
#X connect 23 0 25 0;
#X connect 25 0 26 0;
#X connect 26 0 27 0;
#X connect 27 0 47 0;
#X connect 28 0 29 0;
#X connect 29 0 37 0;
#X connect 29 0 43 0;
#X connect 29 1 30 0;
#X connect 29 1 31 0;
#X connect 29 1 33 0;
#X connect 30 0 32 0;
#X connect 31 0 32 0;
#X connect 32 0 45 0;
#X connect 33 0 34 0;
#X connect 34 0 35 0;
#X connect 34 0 36 0;
#X connect 35 0 46 1;
#X connect 37 2 38 0;
#X connect 38 0 39 0;
#X connect 38 1 39 1;
#X connect 39 0 40 0;
#X connect 40 0 41 0;
#X connect 42 0 44 0;
#X connect 43 0 44 0;
#X connect 44 0 45 1;
#X connect 45 0 46 0;
#X connect 46 0 47 1;
#X connect 47 0 48 0;
#X connect 48 0 49 0;
#X restore 398 435 pd sample_voice;
#N canvas 0 50 450 300 sample_voice 0;
#X obj 225 50 receive sample_start;
#X obj 335 50 receive sample_end;
#X obj 225 75 * 44100;
#X obj 275 75 * 44100;
#X obj 225 100 trigger bang float;
#X obj 225 125 expr ($f2-$f1);
#X obj 225 150 trigger bang float;
#X obj 225 175 expr 1.0/($f2-$f1);
#X obj 450 50 inlet;
#X obj 450 75 unpack 0 0 0 0 0 0 0;
#X obj 450 100 f;
#X obj 500 100 receive sample_base_pitch;
#X obj 450 125 mtof;
#X obj 500 125 mtof;
#X obj 450 150 trigger bang float;
#X obj 450 175 expr $f1/1.0/$f2;
#X floatatom 450 200 5 0 0 0 - - -;
#X obj 675 50 inlet~;
#X obj 225 300 trigger bang float;
#X obj 225 325 *;
#X obj 225 350 <= 0;
#X obj 275 350 moses 0.01;
#X obj 325 350 phasor~ 1;
#X obj 225 375 *~;
#X obj 275 375 -~ 3;
#X obj 325 375 +~;
#X obj 375 375 +~ 1;
#X obj 225 400 tabread4~ array1;
#X obj 550 300 pack 0 0 0 0 0;
#X obj 640 300 route 0;
#X msg 550 325 0;
#X msg 600 325 1 \$2 \, \$5 \$3 \$2;
#X obj 550 350 vline~;
#X obj 550 375 unpack 0 0 0 0 0;
#X obj 550 400 / 128;
#X obj 550 425 line~;
#X floatatom 600 425 5 0 0 0 - - -;
#X obj 550 450 unpack 0 0 0 0 0;
#X obj 640 450 t b f;
#X obj 700 450 delay;
#X obj 750 450 f;
#X msg 800 450 1 \; voice_free \$1;
#X msg 550 475 1;
#X msg 600 475 0 \$3;
#X obj 550 500 vline~;
#X obj 550 525 *~;
#X obj 550 550 *~;
#X obj 400 600 *~;
#X obj 400 625 +~;
#X obj 400 650 outlet~;
#X connect 0 0 2 0;
#X connect 0 0 7 0;
#X connect 1 0 3 0;
#X connect 1 0 6 0;
#X connect 2 0 5 0;
#X connect 2 0 25 1;
#X connect 3 0 4 0;
#X connect 4 0 5 0;
#X connect 4 1 5 1;
#X connect 5 0 23 0;
#X connect 6 0 7 0;
#X connect 6 1 7 1;
#X connect 7 0 19 0;
#X connect 8 0 9 0;
#X connect 9 0 10 0;
#X connect 9 1 20 0;
#X connect 9 1 28 0;
#X connect 9 2 28 1;
#X connect 9 2 42 0;
#X connect 9 3 28 2;
#X connect 9 4 28 4;
#X connect 9 5 28 3;
#X connect 9 6 40 1;
#X connect 10 0 12 0;
#X connect 11 0 13 0;
#X connect 12 0 15 0;
#X connect 13 0 14 0;
#X connect 14 0 15 0;
#X connect 14 1 15 1;
#X connect 15 0 16 0;
#X connect 16 0 18 0;
#X connect 17 0 48 1;
#X connect 18 0 19 0;
#X connect 18 1 19 1;
#X connect 19 0 22 0;
#X connect 20 0 21 0;
#X connect 21 0 22 1;
#X connect 22 0 23 1;
#X connect 23 0 24 0;
#X connect 23 0 25 0;
#X connect 25 0 26 0;
#X connect 26 0 27 0;
#X connect 27 0 47 0;
#X connect 28 0 29 0;
#X connect 29 0 37 0;
#X connect 29 0 43 0;
#X connect 29 1 30 0;
#X connect 29 1 31 0;
#X connect 29 1 33 0;
#X connect 30 0 32 0;
#X connect 31 0 32 0;
#X connect 32 0 45 0;
#X connect 33 0 34 0;
#X connect 34 0 35 0;
#X connect 34 0 36 0;
#X connect 35 0 46 1;
#X connect 37 2 38 0;
#X connect 38 0 39 0;
#X connect 38 1 39 1;
#X connect 39 0 40 0;
#X connect 40 0 41 0;
#X connect 42 0 44 0;
#X connect 43 0 44 0;
#X connect 44 0 45 1;
#X connect 45 0 46 0;
#X connect 46 0 47 1;
#X connect 47 0 48 0;
#X connect 48 0 49 0;
#X restore 399 457 pd sample_voice;
#N canvas 0 50 450 300 sample_voice 0;
#X obj 225 50 receive sample_start;
#X obj 335 50 receive sample_end;
#X obj 225 75 * 44100;
#X obj 275 75 * 44100;
#X obj 225 100 trigger bang float;
#X obj 225 125 expr ($f2-$f1);
#X obj 225 150 trigger bang float;
#X obj 225 175 expr 1.0/($f2-$f1);
#X obj 450 50 inlet;
#X obj 450 75 unpack 0 0 0 0 0 0 0;
#X obj 450 100 f;
#X obj 500 100 receive sample_base_pitch;
#X obj 450 125 mtof;
#X obj 500 125 mtof;
#X obj 450 150 trigger bang float;
#X obj 450 175 expr $f1/1.0/$f2;
#X floatatom 450 200 5 0 0 0 - - -;
#X obj 675 50 inlet~;
#X obj 225 300 trigger bang float;
#X obj 225 325 *;
#X obj 225 350 <= 0;
#X obj 275 350 moses 0.01;
#X obj 325 350 phasor~ 1;
#X obj 225 375 *~;
#X obj 275 375 -~ 3;
#X obj 325 375 +~;
#X obj 375 375 +~ 1;
#X obj 225 400 tabread4~ array1;
#X obj 550 300 pack 0 0 0 0 0;
#X obj 640 300 route 0;
#X msg 550 325 0;
#X msg 600 325 1 \$2 \, \$5 \$3 \$2;
#X obj 550 350 vline~;
#X obj 550 375 unpack 0 0 0 0 0;
#X obj 550 400 / 128;
#X obj 550 425 line~;
#X floatatom 600 425 5 0 0 0 - - -;
#X obj 550 450 unpack 0 0 0 0 0;
#X obj 640 450 t b f;
#X obj 700 450 delay;
#X obj 750 450 f;
#X msg 800 450 1 \; voice_free \$1;
#X msg 550 475 1;
#X msg 600 475 0 \$3;
#X obj 550 500 vline~;
#X obj 550 525 *~;
#X obj 550 550 *~;
#X obj 400 600 *~;
#X obj 400 625 +~;
#X obj 400 650 outlet~;
#X connect 0 0 2 0;
#X connect 0 0 7 0;
#X connect 1 0 3 0;
#X connect 1 0 6 0;
#X connect 2 0 5 0;
#X connect 2 0 25 1;
#X connect 3 0 4 0;
#X connect 4 0 5 0;
#X connect 4 1 5 1;
#X connect 5 0 23 0;
#X connect 6 0 7 0;
#X connect 6 1 7 1;
#X connect 7 0 19 0;
#X connect 8 0 9 0;
#X connect 9 0 10 0;
#X connect 9 1 20 0;
#X connect 9 1 28 0;
#X connect 9 2 28 1;
#X connect 9 2 42 0;
#X connect 9 3 28 2;
#X connect 9 4 28 4;
#X connect 9 5 28 3;
#X connect 9 6 40 1;
#X connect 10 0 12 0;
#X connect 11 0 13 0;
#X connect 12 0 15 0;
#X connect 13 0 14 0;
#X connect 14 0 15 0;
#X connect 14 1 15 1;
#X connect 15 0 16 0;
#X connect 16 0 18 0;
#X connect 17 0 48 1;
#X connect 18 0 19 0;
#X connect 18 1 19 1;
#X connect 19 0 22 0;
#X connect 20 0 21 0;
#X connect 21 0 22 1;
#X connect 22 0 23 1;
#X connect 23 0 24 0;
#X connect 23 0 25 0;
#X connect 25 0 26 0;
#X connect 26 0 27 0;
#X connect 27 0 47 0;
#X connect 28 0 29 0;
#X connect 29 0 37 0;
#X connect 29 0 43 0;
#X connect 29 1 30 0;
#X connect 29 1 31 0;
#X connect 29 1 33 0;
#X connect 30 0 32 0;
#X connect 31 0 32 0;
#X connect 32 0 45 0;
#X connect 33 0 34 0;
#X connect 34 0 35 0;
#X connect 34 0 36 0;
#X connect 35 0 46 1;
#X connect 37 2 38 0;
#X connect 38 0 39 0;
#X connect 38 1 39 1;
#X connect 39 0 40 0;
#X connect 40 0 41 0;
#X connect 42 0 44 0;
#X connect 43 0 44 0;
#X connect 44 0 45 1;
#X connect 45 0 46 0;
#X connect 46 0 47 1;
#X connect 47 0 48 0;
#X connect 48 0 49 0;
#X restore 401 478 pd sample_voice;
#N canvas 0 50 450 300 sample_voice 0;
#X obj 225 50 receive sample_start;
#X obj 335 50 receive sample_end;
#X obj 225 75 * 44100;
#X obj 275 75 * 44100;
#X obj 225 100 trigger bang float;
#X obj 225 125 expr ($f2-$f1);
#X obj 225 150 trigger bang float;
#X obj 225 175 expr 1.0/($f2-$f1);
#X obj 450 50 inlet;
#X obj 450 75 unpack 0 0 0 0 0 0 0;
#X obj 450 100 f;
#X obj 500 100 receive sample_base_pitch;
#X obj 450 125 mtof;
#X obj 500 125 mtof;
#X obj 450 150 trigger bang float;
#X obj 450 175 expr $f1/1.0/$f2;
#X floatatom 450 200 5 0 0 0 - - -;
#X obj 675 50 inlet~;
#X obj 225 300 trigger bang float;
#X obj 225 325 *;
#X obj 225 350 <= 0;
#X obj 275 350 moses 0.01;
#X obj 325 350 phasor~ 1;
#X obj 225 375 *~;
#X obj 275 375 -~ 3;
#X obj 325 375 +~;
#X obj 375 375 +~ 1;
#X obj 225 400 tabread4~ array1;
#X obj 550 300 pack 0 0 0 0 0;
#X obj 640 300 route 0;
#X msg 550 325 0;
#X msg 600 325 1 \$2 \, \$5 \$3 \$2;
#X obj 550 350 vline~;
#X obj 550 375 unpack 0 0 0 0 0;
#X obj 550 400 / 128;
#X obj 550 425 line~;
#X floatatom 600 425 5 0 0 0 - - -;
#X obj 550 450 unpack 0 0 0 0 0;
#X obj 640 450 t b f;
#X obj 700 450 delay;
#X obj 750 450 f;
#X msg 800 450 1 \; voice_free \$1;
#X msg 550 475 1;
#X msg 600 475 0 \$3;
#X obj 550 500 vline~;
#X obj 550 525 *~;
#X obj 550 550 *~;
#X obj 400 600 *~;
#X obj 400 625 +~;
#X obj 400 650 outlet~;
#X connect 0 0 2 0;
#X connect 0 0 7 0;
#X connect 1 0 3 0;
#X connect 1 0 6 0;
#X connect 2 0 5 0;
#X connect 2 0 25 1;
#X connect 3 0 4 0;
#X connect 4 0 5 0;
#X connect 4 1 5 1;
#X connect 5 0 23 0;
#X connect 6 0 7 0;
#X connect 6 1 7 1;
#X connect 7 0 19 0;
#X connect 8 0 9 0;
#X connect 9 0 10 0;
#X connect 9 1 20 0;
#X connect 9 1 28 0;
#X connect 9 2 28 1;
#X connect 9 2 42 0;
#X connect 9 3 28 2;
#X connect 9 4 28 4;
#X connect 9 5 28 3;
#X connect 9 6 40 1;
#X connect 10 0 12 0;
#X connect 11 0 13 0;
#X connect 12 0 15 0;
#X connect 13 0 14 0;
#X connect 14 0 15 0;
#X connect 14 1 15 1;
#X connect 15 0 16 0;
#X connect 16 0 18 0;
#X connect 17 0 48 1;
#X connect 18 0 19 0;
#X connect 18 1 19 1;
#X connect 19 0 22 0;
#X connect 20 0 21 0;
#X connect 21 0 22 1;
#X connect 22 0 23 1;
#X connect 23 0 24 0;
#X connect 23 0 25 0;
#X connect 25 0 26 0;
#X connect 26 0 27 0;
#X connect 27 0 47 0;
#X connect 28 0 29 0;
#X connect 29 0 37 0;
#X connect 29 0 43 0;
#X connect 29 1 30 0;
#X connect 29 1 31 0;
#X connect 29 1 33 0;
#X connect 30 0 32 0;
#X connect 31 0 32 0;
#X connect 32 0 45 0;
#X connect 33 0 34 0;
#X connect 34 0 35 0;
#X connect 34 0 36 0;
#X connect 35 0 46 1;
#X connect 37 2 38 0;
#X connect 38 0 39 0;
#X connect 38 1 39 1;
#X connect 39 0 40 0;
#X connect 40 0 41 0;
#X connect 42 0 44 0;
#X connect 43 0 44 0;
#X connect 44 0 45 1;
#X connect 45 0 46 0;
#X connect 46 0 47 1;
#X connect 47 0 48 0;
#X connect 48 0 49 0;
#X restore 402 500 pd sample_voice;
#N canvas 0 50 450 300 sample_voice 0;
#X obj 225 50 receive sample_start;
#X obj 335 50 receive sample_end;
#X obj 225 75 * 44100;
#X obj 275 75 * 44100;
#X obj 225 100 trigger bang float;
#X obj 225 125 expr ($f2-$f1);
#X obj 225 150 trigger bang float;
#X obj 225 175 expr 1.0/($f2-$f1);
#X obj 450 50 inlet;
#X obj 450 75 unpack 0 0 0 0 0 0 0;
#X obj 450 100 f;
#X obj 500 100 receive sample_base_pitch;
#X obj 450 125 mtof;
#X obj 500 125 mtof;
#X obj 450 150 trigger bang float;
#X obj 450 175 expr $f1/1.0/$f2;
#X floatatom 450 200 5 0 0 0 - - -;
#X obj 675 50 inlet~;
#X obj 225 300 trigger bang float;
#X obj 225 325 *;
#X obj 225 350 <= 0;
#X obj 275 350 moses 0.01;
#X obj 325 350 phasor~ 1;
#X obj 225 375 *~;
#X obj 275 375 -~ 3;
#X obj 325 375 +~;
#X obj 375 375 +~ 1;
#X obj 225 400 tabread4~ array1;
#X obj 550 300 pack 0 0 0 0 0;
#X obj 640 300 route 0;
#X msg 550 325 0;
#X msg 600 325 1 \$2 \, \$5 \$3 \$2;
#X obj 550 350 vline~;
#X obj 550 375 unpack 0 0 0 0 0;
#X obj 550 400 / 128;
#X obj 550 425 line~;
#X floatatom 600 425 5 0 0 0 - - -;
#X obj 550 450 unpack 0 0 0 0 0;
#X obj 640 450 t b f;
#X obj 700 450 delay;
#X obj 750 450 f;
#X msg 800 450 1 \; voice_free \$1;
#X msg 550 475 1;
#X msg 600 475 0 \$3;
#X obj 550 500 vline~;
#X obj 550 525 *~;
#X obj 550 550 *~;
#X obj 400 600 *~;
#X obj 400 625 +~;
#X obj 400 650 outlet~;
#X connect 0 0 2 0;
#X connect 0 0 7 0;
#X connect 1 0 3 0;
#X connect 1 0 6 0;
#X connect 2 0 5 0;
#X connect 2 0 25 1;
#X connect 3 0 4 0;
#X connect 4 0 5 0;
#X connect 4 1 5 1;
#X connect 5 0 23 0;
#X connect 6 0 7 0;
#X connect 6 1 7 1;
#X connect 7 0 19 0;
#X connect 8 0 9 0;
#X connect 9 0 10 0;
#X connect 9 1 20 0;
#X connect 9 1 28 0;
#X connect 9 2 28 1;
#X connect 9 2 42 0;
#X connect 9 3 28 2;
#X connect 9 4 28 4;
#X connect 9 5 28 3;
#X connect 9 6 40 1;
#X connect 10 0 12 0;
#X connect 11 0 13 0;
#X connect 12 0 15 0;
#X connect 13 0 14 0;
#X connect 14 0 15 0;
#X connect 14 1 15 1;
#X connect 15 0 16 0;
#X connect 16 0 18 0;
#X connect 17 0 48 1;
#X connect 18 0 19 0;
#X connect 18 1 19 1;
#X connect 19 0 22 0;
#X connect 20 0 21 0;
#X connect 21 0 22 1;
#X connect 22 0 23 1;
#X connect 23 0 24 0;
#X connect 23 0 25 0;
#X connect 25 0 26 0;
#X connect 26 0 27 0;
#X connect 27 0 47 0;
#X connect 28 0 29 0;
#X connect 29 0 37 0;
#X connect 29 0 43 0;
#X connect 29 1 30 0;
#X connect 29 1 31 0;
#X connect 29 1 33 0;
#X connect 30 0 32 0;
#X connect 31 0 32 0;
#X connect 32 0 45 0;
#X connect 33 0 34 0;
#X connect 34 0 35 0;
#X connect 34 0 36 0;
#X connect 35 0 46 1;
#X connect 37 2 38 0;
#X connect 38 0 39 0;
#X connect 38 1 39 1;
#X connect 39 0 40 0;
#X connect 40 0 41 0;
#X connect 42 0 44 0;
#X connect 43 0 44 0;
#X connect 44 0 45 1;
#X connect 45 0 46 0;
#X connect 46 0 47 1;
#X connect 47 0 48 0;
#X connect 48 0 49 0;
#X restore 403 522 pd sample_voice;
#X obj 279 147 route 0 1 2 3 4 5 6 7 8 9 10 11 12 13 14 15 16 17 18
19 20 21 22 23;
#X obj 177 160 print to_route;
#X obj 303 576 clip~ -1 1;
#X connect 1 0 2 0;
#X connect 2 0 3 0;
#X connect 3 0 4 0;
#X connect 5 0 6 0;
#X connect 6 0 7 0;
#X connect 6 1 15 1;
#X connect 7 0 15 0;
#X connect 8 0 41 0;
#X connect 10 0 11 0;
#X connect 12 0 13 1;
#X connect 13 0 17 1;
#X connect 14 0 12 1;
#X connect 15 0 39 0;
#X connect 17 0 18 1;
#X connect 18 0 19 1;
#X connect 19 0 20 1;
#X connect 20 0 21 1;
#X connect 21 0 22 1;
#X connect 22 0 23 1;
#X connect 23 0 24 1;
#X connect 24 0 25 1;
#X connect 25 0 26 1;
#X connect 26 0 27 1;
#X connect 27 0 28 1;
#X connect 28 0 29 1;
#X connect 29 0 30 1;
#X connect 30 0 31 1;
#X connect 31 0 32 1;
#X connect 32 0 33 1;
#X connect 33 0 34 1;
#X connect 34 0 35 1;
#X connect 35 0 36 1;
#X connect 36 0 37 1;
#X connect 37 0 38 1;
#X connect 38 0 8 0;
#X connect 39 0 12 0;
#X connect 39 1 13 0;
#X connect 39 2 17 0;
#X connect 39 3 18 0;
#X connect 39 4 19 0;
#X connect 39 5 20 0;
#X connect 39 6 21 0;
#X connect 39 7 22 0;
#X connect 39 8 23 0;
#X connect 39 9 24 0;
#X connect 39 10 25 0;
#X connect 39 11 26 0;
#X connect 39 12 27 0;
#X connect 39 13 28 0;
#X connect 39 14 29 0;
#X connect 39 15 30 0;
#X connect 39 16 31 0;
#X connect 39 17 32 0;
#X connect 39 18 33 0;
#X connect 39 19 34 0;
#X connect 39 20 35 0;
#X connect 39 21 36 0;
#X connect 39 22 37 0;
#X connect 39 23 38 0;
#X connect 41 0 9 0;
