#N canvas 0 50 1000 600 10;
#X obj 425 25 inlet;
#X obj 425 50 unpack 0 0 0 0 0 0  0 0 0 0 0 0  0;
#X obj 425 75 t b b f;
#X obj 425 100 mtof;
#X obj 475 100 mtof;
#X obj 425 125 expr $f1/1.0/$f2;
#X obj 425 150 expr 1000.0*$f1*$f2;
#X obj 425 175 list append 1000000.0;
#X obj 625 225 *;
#X obj 625 250 *;
#X obj 625 275 expr $f3*($f2-$f1);
#X obj 625 300 expr $f3*($f2-$f1);
#X obj 625 325 expr 1000.0*abs($f2-$f1);
#X obj 625 350 expr 1.0/abs($f2-$f1);
#X obj 625 375 expr if($f1 >= 0 \,  1.0/abs($f2-$f1) \,  0);
#X obj 625 400 pack 0 0 0 0 0 0;
#N canvas 0 0 300 180 (subpatch) 0;
#X obj 25 25 inlet;
#X obj 25 50 unpack 0 0 0 0 0 0;
#X obj 25 75 t f f;
#X obj 225 75 moses 1e-12;
#X obj 225 100 f;
#X obj 225 125 t b b;
#X msg 225 150 1;
#X obj 225 175 expr sqrt($f2);
#X obj 225 200 pack 0 0 0;
#X msg 225 225 0 \,  1 \$2 \,  \$1 \$3 \$2;
#X obj 225 250 vline~;
#X obj 325 125 t b b;
#X obj 325 150 f;
#X msg 325 175 0 \$1;
#X obj 325 200 vline~;
#X obj 325 225 delay;
#X obj 325 250 f;
#X msg 325 275 1 \;  voice_free \$1;
#X obj 325 315 *~;
#X obj 325 340 *~;
#X obj 325 365 *~;
#X obj 325 390 outlet~;
#X connect 0 0 1 0;
#X connect 1 0 2 0;
#X connect 2 0 3 0;
#X connect 3 1 4 0;
#X connect 4 0 5 0;
#X connect 5 1 6 0;
#X connect 5 0 7 0;
#X connect 1 3 7 1;
#X connect 7 0 8 0;
#X connect 1 1 8 1;
#X connect 1 2 8 2;
#X connect 8 0 9 0;
#X connect 9 0 10 0;
#X connect 3 0 11 0;
#X connect 11 1 12 0;
#X connect 1 4 12 1;
#X connect 12 0 13 0;
#X connect 6 0 14 0;
#X connect 13 0 14 0;
#X connect 11 0 15 0;
#X connect 12 0 15 1;
#X connect 15 0 16 0;
#X connect 1 5 16 1;
#X connect 16 0 17 0;
#X connect 10 0 18 0;
#X connect 14 0 18 1;
#X connect 18 0 19 0;
#X connect 4 0 19 1;
#X connect 19 0 20 0;
#X connect 19 0 20 1;
#X connect 20 0 21 0;
#X restore 625 425 pd envelope;
#X obj 225 225 f;
#X obj 225 250 moses 1e-12;
#X obj 225 275 t b b;
#X obj 225 300 expr $f2/1.0/$f3;
#X obj 225 325 t f f f;
#X obj 225 350 pack 0 0 0;
#X msg 225 375 \$2 0 \,  \$3 0 \$1;
#X obj 225 400 vline~;
#X obj 225 425 *~;
#X msg 225 450 0;
#X obj 275 450 phasor~;
#X obj 225 475 pack 0 0 0;
#X msg 225 500 \$2 0 \,  \$3 0 \$1;
#X obj 225 525 vline~;
#X obj 225 550 pack 0 0 0;
#X msg 225 575 \$2 0 \,  \$3 0 \$1;
#X obj 225 600 vline~;
#X obj 225 625 *~;
#X obj 225 650 +~;
#X msg 225 675 set array\$1;
#X obj 225 700 tabread4~ array0;
#X obj 225 725 *~;
#X obj 225 750 outlet~;
#X connect 0 0 1 0;
#X connect 1 0 2 0;
#X connect 2 2 3 0;
#X connect 1 11 4 0;
#X connect 3 0 5 0;
#X connect 4 0 5 1;
#X connect 5 0 6 0;
#X connect 1 10 6 1;
#X connect 6 0 7 0;
#X connect 1 7 8 0;
#X connect 1 10 8 1;
#X connect 1 8 9 0;
#X connect 1 10 9 1;
#X connect 1 7 10 0;
#X connect 1 9 10 1;
#X connect 1 10 10 2;
#X connect 1 8 11 0;
#X connect 1 9 11 1;
#X connect 1 10 11 2;
#X connect 1 7 12 0;
#X connect 1 9 12 1;
#X connect 1 7 13 0;
#X connect 1 9 13 1;
#X connect 1 8 14 0;
#X connect 1 9 14 1;
#X connect 1 1 15 0;
#X connect 1 2 15 1;
#X connect 1 3 15 2;
#X connect 1 4 15 3;
#X connect 1 5 15 4;
#X connect 1 12 15 5;
#X connect 15 0 16 0;
#X connect 2 1 17 0;
#X connect 1 1 17 1;
#X connect 17 0 18 0;
#X connect 18 1 19 0;
#X connect 19 1 20 0;
#X connect 12 0 20 1;
#X connect 5 0 20 2;
#X connect 20 0 21 0;
#X connect 21 0 22 0;
#X connect 13 0 22 1;
#X connect 14 0 22 2;
#X connect 22 0 23 0;
#X connect 23 0 24 0;
#X connect 24 0 25 0;
#X connect 5 0 25 1;
#X connect 19 0 26 0;
#X connect 25 0 27 0;
#X connect 26 0 27 1;
#X connect 21 1 28 0;
#X connect 8 0 28 1;
#X connect 9 0 28 2;
#X connect 28 0 29 0;
#X connect 29 0 30 0;
#X connect 21 2 31 0;
#X connect 10 0 31 1;
#X connect 11 0 31 2;
#X connect 31 0 32 0;
#X connect 32 0 33 0;
#X connect 27 0 34 0;
#X connect 33 0 34 1;
#X connect 34 0 35 0;
#X connect 30 0 35 1;
#X connect 1 6 36 0;
#X connect 35 0 37 0;
#X connect 36 0 37 0;
#X connect 37 0 38 0;
#X connect 16 0 38 1;
#X connect 38 0 39 0;